<svg id="Icon_ionic-ios-arrow-dropright" data-name="Icon ionic-ios-arrow-dropright" xmlns="http://www.w3.org/2000/svg" width="23.804" height="23.804" viewBox="0 0 23.804 23.804">
  <path id="Path_120" data-name="Path 120" d="M14.74,10.3a1.109,1.109,0,0,1,1.562,0l5.459,5.476A1.1,1.1,0,0,1,21.8,17.3l-5.379,5.4a1.1,1.1,0,1,1-1.562-1.556L19.427,16.5,14.74,11.861A1.091,1.091,0,0,1,14.74,10.3Z" transform="translate(-5.43 -4.605)" fill="#00a69d"/>
  <path id="Path_121" data-name="Path 121" d="M3.375,15.277a11.9,11.9,0,1,0,11.9-11.9A11.9,11.9,0,0,0,3.375,15.277Zm1.831,0A10.067,10.067,0,0,1,22.4,8.159,10.067,10.067,0,1,1,8.159,22.4,9.984,9.984,0,0,1,5.206,15.277Z" transform="translate(-3.375 -3.375)" fill="#00a69d"/>
</svg>
