<?xml version="1.0" encoding="UTF-8"?>
<svg id="Layer_1" data-name="Layer 1" xmlns="http://www.w3.org/2000/svg" xmlns:xlink="http://www.w3.org/1999/xlink" version="1.1" viewBox="0 0 416.3 391.5">
  <defs>
    <style>
      .cls-1 {
        clip-path: url(#clippath);
      }

      .cls-2 {
        fill: none;
      }

      .cls-2, .cls-3 {
        stroke-width: 0px;
      }

      .cls-4 {
        clip-path: url(#clippath-1);
      }

      .cls-5 {
        clip-path: url(#clippath-4);
      }

      .cls-6 {
        clip-path: url(#clippath-3);
      }

      .cls-7 {
        clip-path: url(#clippath-2);
      }

      .cls-8 {
        clip-path: url(#clippath-7);
      }

      .cls-9 {
        clip-path: url(#clippath-8);
      }

      .cls-10 {
        clip-path: url(#clippath-6);
      }

      .cls-11 {
        clip-path: url(#clippath-5);
      }

      .cls-12 {
        clip-path: url(#clippath-9);
      }

      .cls-13 {
        clip-path: url(#clippath-60);
      }

      .cls-14 {
        clip-path: url(#clippath-20);
      }

      .cls-15 {
        clip-path: url(#clippath-21);
      }

      .cls-16 {
        clip-path: url(#clippath-24);
      }

      .cls-17 {
        clip-path: url(#clippath-23);
      }

      .cls-18 {
        clip-path: url(#clippath-22);
      }

      .cls-19 {
        clip-path: url(#clippath-25);
      }

      .cls-20 {
        clip-path: url(#clippath-44);
      }

      .cls-21 {
        clip-path: url(#clippath-45);
      }

      .cls-22 {
        clip-path: url(#clippath-40);
      }

      .cls-23 {
        clip-path: url(#clippath-42);
      }

      .cls-24 {
        clip-path: url(#clippath-41);
      }

      .cls-25 {
        clip-path: url(#clippath-47);
      }

      .cls-26 {
        clip-path: url(#clippath-43);
      }

      .cls-27 {
        clip-path: url(#clippath-46);
      }

      .cls-28 {
        clip-path: url(#clippath-48);
      }

      .cls-29 {
        clip-path: url(#clippath-49);
      }

      .cls-30 {
        clip-path: url(#clippath-27);
      }

      .cls-31 {
        clip-path: url(#clippath-28);
      }

      .cls-32 {
        clip-path: url(#clippath-26);
      }

      .cls-33 {
        clip-path: url(#clippath-29);
      }

      .cls-34 {
        clip-path: url(#clippath-34);
      }

      .cls-35 {
        clip-path: url(#clippath-35);
      }

      .cls-36 {
        clip-path: url(#clippath-36);
      }

      .cls-37 {
        clip-path: url(#clippath-37);
      }

      .cls-38 {
        clip-path: url(#clippath-39);
      }

      .cls-39 {
        clip-path: url(#clippath-33);
      }

      .cls-40 {
        clip-path: url(#clippath-32);
      }

      .cls-41 {
        clip-path: url(#clippath-30);
      }

      .cls-42 {
        clip-path: url(#clippath-38);
      }

      .cls-43 {
        clip-path: url(#clippath-31);
      }

      .cls-44 {
        clip-path: url(#clippath-53);
      }

      .cls-45 {
        clip-path: url(#clippath-54);
      }

      .cls-46 {
        clip-path: url(#clippath-50);
      }

      .cls-47 {
        clip-path: url(#clippath-51);
      }

      .cls-48 {
        clip-path: url(#clippath-52);
      }

      .cls-49 {
        clip-path: url(#clippath-55);
      }

      .cls-50 {
        clip-path: url(#clippath-56);
      }

      .cls-51 {
        clip-path: url(#clippath-57);
      }

      .cls-52 {
        clip-path: url(#clippath-58);
      }

      .cls-53 {
        clip-path: url(#clippath-61);
      }

      .cls-54 {
        clip-path: url(#clippath-62);
      }

      .cls-55 {
        clip-path: url(#clippath-59);
      }

      .cls-56 {
        clip-path: url(#clippath-63);
      }

      .cls-57 {
        clip-path: url(#clippath-14);
      }

      .cls-58 {
        clip-path: url(#clippath-13);
      }

      .cls-59 {
        clip-path: url(#clippath-12);
      }

      .cls-60 {
        clip-path: url(#clippath-10);
      }

      .cls-61 {
        clip-path: url(#clippath-15);
      }

      .cls-62 {
        clip-path: url(#clippath-17);
      }

      .cls-63 {
        clip-path: url(#clippath-16);
      }

      .cls-64 {
        clip-path: url(#clippath-19);
      }

      .cls-65 {
        clip-path: url(#clippath-11);
      }

      .cls-66 {
        clip-path: url(#clippath-18);
      }

      .cls-67 {
        opacity: .6;
      }

      .cls-68 {
        opacity: .5;
      }

      .cls-69 {
        opacity: .9;
      }

      .cls-70 {
        opacity: .8;
      }

      .cls-3 {
        fill: #fff;
      }
    </style>
    <clipPath id="clippath">
      <rect class="cls-2" x="104.1" y="213.2" width="27.8" height="27.8"/>
    </clipPath>
    <clipPath id="clippath-1">
      <rect class="cls-2" x="104.1" y="213.2" width="27.8" height="27.8"/>
    </clipPath>
    <clipPath id="clippath-2">
      <rect class="cls-2" x="106.4" y="253.3" width="30.6" height="30.6"/>
    </clipPath>
    <clipPath id="clippath-3">
      <rect class="cls-2" x="106.4" y="253.3" width="30.6" height="30.6"/>
    </clipPath>
    <clipPath id="clippath-4">
      <rect class="cls-2" x="127.3" y="294.8" width="33.6" height="33.6"/>
    </clipPath>
    <clipPath id="clippath-5">
      <rect class="cls-2" x="127.3" y="294.8" width="33.6" height="33.6"/>
    </clipPath>
    <clipPath id="clippath-6">
      <rect class="cls-2" x="167.7" y="333.3" width="37" height="37"/>
    </clipPath>
    <clipPath id="clippath-7">
      <rect class="cls-2" x="167.7" y="333.3" width="37" height="37"/>
    </clipPath>
    <clipPath id="clippath-8">
      <rect class="cls-2" x="289.7" y="216.2" width="27.8" height="27.8"/>
    </clipPath>
    <clipPath id="clippath-9">
      <rect class="cls-2" x="289.7" y="216.2" width="27.8" height="27.8"/>
    </clipPath>
    <clipPath id="clippath-10">
      <rect class="cls-2" x="315.1" y="182.8" width="30.6" height="30.6"/>
    </clipPath>
    <clipPath id="clippath-11">
      <rect class="cls-2" x="315.1" y="182.8" width="30.6" height="30.6"/>
    </clipPath>
    <clipPath id="clippath-12">
      <rect class="cls-2" x="328.1" y="135" width="33.6" height="33.6"/>
    </clipPath>
    <clipPath id="clippath-13">
      <rect class="cls-2" x="328.1" y="135" width="33.6" height="33.6"/>
    </clipPath>
    <clipPath id="clippath-14">
      <rect class="cls-2" x="325.1" y="75.2" width="37" height="37"/>
    </clipPath>
    <clipPath id="clippath-15">
      <rect class="cls-2" x="325.1" y="75.1" width="37" height="37"/>
    </clipPath>
    <clipPath id="clippath-16">
      <rect class="cls-2" x="161" y="83.1" width="27.8" height="27.8"/>
    </clipPath>
    <clipPath id="clippath-17">
      <rect class="cls-2" x="161" y="83.1" width="27.8" height="27.8"/>
    </clipPath>
    <clipPath id="clippath-18">
      <rect class="cls-2" x="118" y="85.4" width="30.6" height="30.6"/>
    </clipPath>
    <clipPath id="clippath-19">
      <rect class="cls-2" x="118" y="85.5" width="30.6" height="30.6"/>
    </clipPath>
    <clipPath id="clippath-20">
      <rect class="cls-2" x="73.5" y="106.4" width="33.6" height="33.6"/>
    </clipPath>
    <clipPath id="clippath-21">
      <rect class="cls-2" x="73.5" y="106.4" width="33.6" height="33.6"/>
    </clipPath>
    <clipPath id="clippath-22">
      <rect class="cls-2" x="31.6" y="146.8" width="37" height="37"/>
    </clipPath>
    <clipPath id="clippath-23">
      <rect class="cls-2" x="31.6" y="146.7" width="37" height="37"/>
    </clipPath>
    <clipPath id="clippath-24">
      <rect class="cls-2" x="157.5" y="268.4" width="27.8" height="27.8"/>
    </clipPath>
    <clipPath id="clippath-25">
      <rect class="cls-2" x="157.5" y="268.4" width="27.8" height="27.8"/>
    </clipPath>
    <clipPath id="clippath-26">
      <rect class="cls-2" x="188.2" y="293.8" width="30.6" height="30.6"/>
    </clipPath>
    <clipPath id="clippath-27">
      <rect class="cls-2" x="188.2" y="293.8" width="30.6" height="30.6"/>
    </clipPath>
    <clipPath id="clippath-28">
      <rect class="cls-2" x="232.9" y="306.8" width="33.6" height="33.7"/>
    </clipPath>
    <clipPath id="clippath-29">
      <rect class="cls-2" x="232.9" y="306.8" width="33.6" height="33.7"/>
    </clipPath>
    <clipPath id="clippath-30">
      <rect class="cls-2" x="289.4" y="303.8" width="37" height="37"/>
    </clipPath>
    <clipPath id="clippath-31">
      <rect class="cls-2" x="289.4" y="303.8" width="37" height="37"/>
    </clipPath>
    <clipPath id="clippath-32">
      <rect class="cls-2" x="291" y="139.3" width="27.8" height="27.8"/>
    </clipPath>
    <clipPath id="clippath-33">
      <rect class="cls-2" x="291" y="139.3" width="27.8" height="27.8"/>
    </clipPath>
    <clipPath id="clippath-34">
      <rect class="cls-2" x="285.9" y="96.3" width="30.6" height="30.6"/>
    </clipPath>
    <clipPath id="clippath-35">
      <rect class="cls-2" x="285.9" y="96.3" width="30.6" height="30.6"/>
    </clipPath>
    <clipPath id="clippath-36">
      <rect class="cls-2" x="261.9" y="51.8" width="33.6" height="33.6"/>
    </clipPath>
    <clipPath id="clippath-37">
      <rect class="cls-2" x="261.9" y="51.8" width="33.6" height="33.7"/>
    </clipPath>
    <clipPath id="clippath-38">
      <rect class="cls-2" x="218.2" y="9.9" width="37" height="37"/>
    </clipPath>
    <clipPath id="clippath-39">
      <rect class="cls-2" x="218.2" y="9.9" width="37" height="37"/>
    </clipPath>
    <clipPath id="clippath-40">
      <rect class="cls-2" x="105.3" y="136.2" width="27.8" height="27.8"/>
    </clipPath>
    <clipPath id="clippath-41">
      <rect class="cls-2" x="105.3" y="136.2" width="27.8" height="27.8"/>
    </clipPath>
    <clipPath id="clippath-42">
      <rect class="cls-2" x="77.2" y="166.9" width="30.6" height="30.6"/>
    </clipPath>
    <clipPath id="clippath-43">
      <rect class="cls-2" x="77.2" y="166.9" width="30.6" height="30.6"/>
    </clipPath>
    <clipPath id="clippath-44">
      <rect class="cls-2" x="61.1" y="211.6" width="33.6" height="33.6"/>
    </clipPath>
    <clipPath id="clippath-45">
      <rect class="cls-2" x="61.1" y="211.6" width="33.6" height="33.7"/>
    </clipPath>
    <clipPath id="clippath-46">
      <rect class="cls-2" x="60.7" y="268.1" width="37" height="37"/>
    </clipPath>
    <clipPath id="clippath-47">
      <rect class="cls-2" x="60.7" y="268.1" width="37" height="37"/>
    </clipPath>
    <clipPath id="clippath-48">
      <rect class="cls-2" x="234.4" y="269.7" width="27.8" height="27.8"/>
    </clipPath>
    <clipPath id="clippath-49">
      <rect class="cls-2" x="234.4" y="269.7" width="27.8" height="27.8"/>
    </clipPath>
    <clipPath id="clippath-50">
      <rect class="cls-2" x="274.6" y="264.5" width="30.6" height="30.6"/>
    </clipPath>
    <clipPath id="clippath-51">
      <rect class="cls-2" x="274.6" y="264.5" width="30.6" height="30.6"/>
    </clipPath>
    <clipPath id="clippath-52">
      <rect class="cls-2" x="316.1" y="240.6" width="33.6" height="33.6"/>
    </clipPath>
    <clipPath id="clippath-53">
      <rect class="cls-2" x="316.1" y="240.6" width="33.7" height="33.6"/>
    </clipPath>
    <clipPath id="clippath-54">
      <rect class="cls-2" x="354.6" y="196.9" width="37" height="37"/>
    </clipPath>
    <clipPath id="clippath-55">
      <rect class="cls-2" x="354.6" y="196.9" width="37" height="37"/>
    </clipPath>
    <clipPath id="clippath-56">
      <rect class="cls-2" x="237.5" y="84" width="27.8" height="27.8"/>
    </clipPath>
    <clipPath id="clippath-57">
      <rect class="cls-2" x="237.5" y="84" width="27.8" height="27.8"/>
    </clipPath>
    <clipPath id="clippath-58">
      <rect class="cls-2" x="204.1" y="55.9" width="30.6" height="30.6"/>
    </clipPath>
    <clipPath id="clippath-59">
      <rect class="cls-2" x="204.1" y="55.9" width="30.6" height="30.6"/>
    </clipPath>
    <clipPath id="clippath-60">
      <rect class="cls-2" x="156.3" y="39.8" width="33.7" height="33.6"/>
    </clipPath>
    <clipPath id="clippath-61">
      <rect class="cls-2" x="156.3" y="39.8" width="33.7" height="33.7"/>
    </clipPath>
    <clipPath id="clippath-62">
      <rect class="cls-2" x="96.4" y="39.4" width="37" height="37"/>
    </clipPath>
    <clipPath id="clippath-63">
      <rect class="cls-2" x="96.4" y="39.4" width="37" height="37"/>
    </clipPath>
  </defs>
  <g id="cohabinitiative">
    <g id="Group_1" data-name="Group 1">
      <path id="Path_1" data-name="Path 1" class="cls-3" d="M126.4,179.4c-7,0-12.6,5.7-12.6,12.6,0,7,5.7,12.6,12.6,12.6s12.6-5.7,12.6-12.6c0,0,0,0,0,0,0-7-5.7-12.6-12.6-12.6"/>
    </g>
    <g id="Group_5" data-name="Group 5" class="cls-69">
      <g id="Group_4" data-name="Group 4">
        <g class="cls-1">
          <g id="Group_3" data-name="Group 3">
            <g class="cls-4">
              <g id="Group_2" data-name="Group 2">
                <path id="Path_2" data-name="Path 2" class="cls-3" d="M118,213.2c-7.7,0-13.9,6.2-13.9,13.9,0,7.7,6.2,13.9,13.9,13.9s13.9-6.2,13.9-13.9h0c0-7.7-6.2-13.9-13.9-13.9"/>
              </g>
            </g>
          </g>
        </g>
      </g>
    </g>
    <g id="Group_9" data-name="Group 9" class="cls-70">
      <g id="Group_8" data-name="Group 8">
        <g class="cls-7">
          <g id="Group_7" data-name="Group 7">
            <g class="cls-6">
              <g id="Group_6" data-name="Group 6">
                <path id="Path_3" data-name="Path 3" class="cls-3" d="M121.7,253.3c-8.4,0-15.3,6.9-15.3,15.3,0,8.4,6.9,15.3,15.3,15.3,8.4,0,15.3-6.9,15.3-15.3,0-8.4-6.8-15.3-15.3-15.3h0"/>
              </g>
            </g>
          </g>
        </g>
      </g>
    </g>
    <g id="Group_13" data-name="Group 13" class="cls-67">
      <g id="Group_12" data-name="Group 12">
        <g class="cls-5">
          <g id="Group_11" data-name="Group 11">
            <g class="cls-11">
              <g id="Group_10" data-name="Group 10">
                <path id="Path_4" data-name="Path 4" class="cls-3" d="M144.1,294.8c-9.3,0-16.8,7.5-16.8,16.8,0,9.3,7.5,16.8,16.8,16.8,9.3,0,16.8-7.5,16.8-16.8h0c0-9.3-7.5-16.8-16.8-16.8"/>
              </g>
            </g>
          </g>
        </g>
      </g>
    </g>
    <g id="Group_17" data-name="Group 17" class="cls-68">
      <g id="Group_16" data-name="Group 16">
        <g class="cls-10">
          <g id="Group_15" data-name="Group 15">
            <g class="cls-8">
              <g id="Group_14" data-name="Group 14">
                <path id="Path_5" data-name="Path 5" class="cls-3" d="M186.2,333.3c-10.2,0-18.5,8.3-18.5,18.5,0,10.2,8.3,18.5,18.5,18.5,10.2,0,18.5-8.3,18.5-18.5h0c0-10.2-8.3-18.5-18.5-18.5h0"/>
              </g>
            </g>
          </g>
        </g>
      </g>
    </g>
    <g id="Group_18" data-name="Group 18">
      <path id="Path_6" data-name="Path 6" class="cls-3" d="M264,257.9c4.9,4.9,12.9,4.9,17.9,0,4.9-4.9,4.9-12.9,0-17.9-4.9-4.9-12.9-4.9-17.9,0-4.9,4.9-4.9,12.9,0,17.9h0"/>
    </g>
    <g id="Group_22" data-name="Group 22" class="cls-69">
      <g id="Group_21" data-name="Group 21">
        <g class="cls-9">
          <g id="Group_20" data-name="Group 20">
            <g class="cls-12">
              <g id="Group_19" data-name="Group 19">
                <path id="Path_7" data-name="Path 7" class="cls-3" d="M293.8,240c5.4,5.4,14.2,5.4,19.7,0s5.4-14.2,0-19.7c-5.4-5.4-14.2-5.4-19.6,0-5.4,5.4-5.4,14.3,0,19.7"/>
              </g>
            </g>
          </g>
        </g>
      </g>
    </g>
    <g id="Group_26" data-name="Group 26" class="cls-70">
      <g id="Group_25" data-name="Group 25">
        <g class="cls-60">
          <g id="Group_24" data-name="Group 24">
            <g class="cls-65">
              <g id="Group_23" data-name="Group 23">
                <path id="Path_8" data-name="Path 8" class="cls-3" d="M319.6,208.9c6,6,15.6,6,21.6,0,6-6,6-15.6,0-21.6-6-6-15.6-6-21.6,0,0,0,0,0,0,0-6,5.9-6,15.6,0,21.6,0,0,0,0,0,0"/>
              </g>
            </g>
          </g>
        </g>
      </g>
    </g>
    <g id="Group_30" data-name="Group 30" class="cls-67">
      <g id="Group_29" data-name="Group 29">
        <g class="cls-59">
          <g id="Group_28" data-name="Group 28">
            <g class="cls-58">
              <g id="Group_27" data-name="Group 27">
                <path id="Path_9" data-name="Path 9" class="cls-3" d="M333,163.7c6.6,6.6,17.2,6.6,23.8,0,6.6-6.6,6.6-17.2,0-23.8-6.6-6.6-17.2-6.6-23.8,0,0,0,0,0,0,0-6.6,6.5-6.6,17.2,0,23.7,0,0,0,0,0,0"/>
              </g>
            </g>
          </g>
        </g>
      </g>
    </g>
    <g id="Group_34" data-name="Group 34" class="cls-68">
      <g id="Group_33" data-name="Group 33">
        <g class="cls-57">
          <g id="Group_32" data-name="Group 32">
            <g class="cls-61">
              <g id="Group_31" data-name="Group 31">
                <path id="Path_10" data-name="Path 10" class="cls-3" d="M330.5,106.7c7.2,7.2,18.9,7.2,26.2,0,7.2-7.2,7.2-18.9,0-26.2-7.2-7.2-18.9-7.2-26.2,0-7.2,7.2-7.2,18.9,0,26.2"/>
              </g>
            </g>
          </g>
        </g>
      </g>
    </g>
    <g id="Group_35" data-name="Group 35">
      <path id="Path_11" data-name="Path 11" class="cls-3" d="M222.6,105.4c0-7-5.7-12.6-12.6-12.6-7,0-12.6,5.7-12.6,12.6s5.7,12.6,12.6,12.6h0c7,0,12.6-5.6,12.6-12.6h0"/>
    </g>
    <g id="Group_39" data-name="Group 39" class="cls-69">
      <g id="Group_38" data-name="Group 38">
        <g class="cls-63">
          <g id="Group_37" data-name="Group 37">
            <g class="cls-62">
              <g id="Group_36" data-name="Group 36">
                <path id="Path_12" data-name="Path 12" class="cls-3" d="M188.8,97c0-7.7-6.2-13.9-13.9-13.9-7.7,0-13.9,6.2-13.9,13.9,0,7.7,6.2,13.9,13.9,13.9s13.9-6.2,13.9-13.9h0"/>
              </g>
            </g>
          </g>
        </g>
      </g>
    </g>
    <g id="Group_43" data-name="Group 43" class="cls-70">
      <g id="Group_42" data-name="Group 42">
        <g class="cls-66">
          <g id="Group_41" data-name="Group 41">
            <g class="cls-64">
              <g id="Group_40" data-name="Group 40">
                <path id="Path_13" data-name="Path 13" class="cls-3" d="M148.6,100.8c0-8.4-6.8-15.3-15.3-15.3-8.4,0-15.3,6.8-15.3,15.3,0,8.4,6.8,15.3,15.3,15.3h0c8.4,0,15.3-6.8,15.3-15.3h0"/>
              </g>
            </g>
          </g>
        </g>
      </g>
    </g>
    <g id="Group_47" data-name="Group 47" class="cls-67">
      <g id="Group_46" data-name="Group 46">
        <g class="cls-14">
          <g id="Group_45" data-name="Group 45">
            <g class="cls-15">
              <g id="Group_44" data-name="Group 44">
                <path id="Path_14" data-name="Path 14" class="cls-3" d="M107.2,123.2c0-9.3-7.5-16.8-16.8-16.8-9.3,0-16.8,7.5-16.8,16.8s7.5,16.8,16.8,16.8h0c9.3,0,16.8-7.5,16.8-16.8,0,0,0,0,0,0"/>
              </g>
            </g>
          </g>
        </g>
      </g>
    </g>
    <g id="Group_51" data-name="Group 51" class="cls-68">
      <g id="Group_50" data-name="Group 50">
        <g class="cls-18">
          <g id="Group_49" data-name="Group 49">
            <g class="cls-17">
              <g id="Group_48" data-name="Group 48">
                <path id="Path_15" data-name="Path 15" class="cls-3" d="M68.7,165.2c0-10.2-8.3-18.5-18.5-18.5-10.2,0-18.5,8.3-18.5,18.5,0,10.2,8.3,18.5,18.5,18.5,10.2,0,18.5-8.3,18.5-18.5,0,0,0,0,0,0"/>
              </g>
            </g>
          </g>
        </g>
      </g>
    </g>
    <g id="Group_52" data-name="Group 52">
      <path id="Path_16" data-name="Path 16" class="cls-3" d="M143.7,242.7c-4.9,4.9-4.9,12.9,0,17.9,4.9,4.9,12.9,4.9,17.9,0,4.9-4.9,4.9-12.9,0-17.9-4.9-4.9-12.9-4.9-17.9,0,0,0,0,0,0,0"/>
    </g>
    <g id="Group_56" data-name="Group 56" class="cls-69">
      <g id="Group_55" data-name="Group 55">
        <g class="cls-16">
          <g id="Group_54" data-name="Group 54">
            <g class="cls-19">
              <g id="Group_53" data-name="Group 53">
                <path id="Path_17" data-name="Path 17" class="cls-3" d="M161.6,272.5c-5.4,5.4-5.4,14.2,0,19.7,5.4,5.4,14.2,5.4,19.7,0,5.4-5.4,5.4-14.2,0-19.6-5.4-5.4-14.2-5.4-19.7,0,0,0,0,0,0,0"/>
              </g>
            </g>
          </g>
        </g>
      </g>
    </g>
    <g id="Group_60" data-name="Group 60" class="cls-70">
      <g id="Group_59" data-name="Group 59">
        <g class="cls-32">
          <g id="Group_58" data-name="Group 58">
            <g class="cls-30">
              <g id="Group_57" data-name="Group 57">
                <path id="Path_18" data-name="Path 18" class="cls-3" d="M192.7,298.3c-6,6-6,15.6,0,21.6,6,6,15.6,6,21.6,0,6-6,6-15.6,0-21.6,0,0,0,0,0,0-6-6-15.6-6-21.6,0"/>
              </g>
            </g>
          </g>
        </g>
      </g>
    </g>
    <g id="Group_64" data-name="Group 64" class="cls-67">
      <g id="Group_63" data-name="Group 63">
        <g class="cls-31">
          <g id="Group_62" data-name="Group 62">
            <g class="cls-33">
              <g id="Group_61" data-name="Group 61">
                <path id="Path_19" data-name="Path 19" class="cls-3" d="M237.9,311.7c-6.6,6.6-6.6,17.2,0,23.8,6.6,6.6,17.2,6.6,23.8,0,6.6-6.6,6.6-17.2,0-23.8,0,0,0,0,0,0-6.6-6.6-17.2-6.6-23.8,0"/>
              </g>
            </g>
          </g>
        </g>
      </g>
    </g>
    <g id="Group_68" data-name="Group 68" class="cls-68">
      <g id="Group_67" data-name="Group 67">
        <g class="cls-41">
          <g id="Group_66" data-name="Group 66">
            <g class="cls-43">
              <g id="Group_65" data-name="Group 65">
                <path id="Path_20" data-name="Path 20" class="cls-3" d="M294.8,309.2c-7.2,7.2-7.2,18.9,0,26.2,7.2,7.2,18.9,7.2,26.2,0,7.2-7.2,7.2-18.9,0-26.2h0c-7.2-7.2-18.9-7.2-26.2,0"/>
              </g>
            </g>
          </g>
        </g>
      </g>
    </g>
    <g id="Group_69" data-name="Group 69">
      <path id="Path_21" data-name="Path 21" class="cls-3" d="M296.5,200.9c7,0,12.6-5.7,12.6-12.6,0-7-5.7-12.6-12.6-12.6-7,0-12.6,5.7-12.6,12.6,0,7,5.7,12.6,12.6,12.6h0"/>
    </g>
    <g id="Group_73" data-name="Group 73" class="cls-69">
      <g id="Group_72" data-name="Group 72">
        <g class="cls-40">
          <g id="Group_71" data-name="Group 71">
            <g class="cls-39">
              <g id="Group_70" data-name="Group 70">
                <path id="Path_22" data-name="Path 22" class="cls-3" d="M304.9,167.1c7.7,0,13.9-6.2,13.9-13.9s-6.2-13.9-13.9-13.9-13.9,6.2-13.9,13.9c0,7.7,6.2,13.9,13.9,13.9h0"/>
              </g>
            </g>
          </g>
        </g>
      </g>
    </g>
    <g id="Group_77" data-name="Group 77" class="cls-70">
      <g id="Group_76" data-name="Group 76">
        <g class="cls-34">
          <g id="Group_75" data-name="Group 75">
            <g class="cls-35">
              <g id="Group_74" data-name="Group 74">
                <path id="Path_23" data-name="Path 23" class="cls-3" d="M301.2,126.9c8.4,0,15.3-6.8,15.3-15.3s-6.8-15.3-15.3-15.3-15.3,6.8-15.3,15.3c0,8.4,6.9,15.3,15.3,15.3"/>
              </g>
            </g>
          </g>
        </g>
      </g>
    </g>
    <g id="Group_81" data-name="Group 81" class="cls-67">
      <g id="Group_80" data-name="Group 80">
        <g class="cls-36">
          <g id="Group_79" data-name="Group 79">
            <g class="cls-37">
              <g id="Group_78" data-name="Group 78">
                <path id="Path_24" data-name="Path 24" class="cls-3" d="M278.7,85.5c9.3,0,16.8-7.5,16.8-16.8,0-9.3-7.5-16.8-16.8-16.8-9.3,0-16.8,7.5-16.8,16.8h0c0,9.3,7.5,16.8,16.8,16.8"/>
              </g>
            </g>
          </g>
        </g>
      </g>
    </g>
    <g id="Group_85" data-name="Group 85" class="cls-68">
      <g id="Group_84" data-name="Group 84">
        <g class="cls-42">
          <g id="Group_83" data-name="Group 83">
            <g class="cls-38">
              <g id="Group_82" data-name="Group 82">
                <path id="Path_25" data-name="Path 25" class="cls-3" d="M236.7,46.9c10.2,0,18.5-8.3,18.5-18.5,0-10.2-8.3-18.5-18.5-18.5s-18.5,8.3-18.5,18.5h0c0,10.2,8.3,18.5,18.5,18.5h0"/>
              </g>
            </g>
          </g>
        </g>
      </g>
    </g>
    <g id="Group_86" data-name="Group 86">
      <path id="Path_26" data-name="Path 26" class="cls-3" d="M158.9,122.3c-4.9-4.9-12.9-4.9-17.9,0-4.9,4.9-4.9,12.9,0,17.9,4.9,4.9,12.9,4.9,17.9,0h0c4.9-4.9,5-12.9,0-17.8,0,0,0,0,0,0"/>
    </g>
    <g id="Group_90" data-name="Group 90" class="cls-69">
      <g id="Group_89" data-name="Group 89">
        <g class="cls-22">
          <g id="Group_88" data-name="Group 88">
            <g class="cls-24">
              <g id="Group_87" data-name="Group 87">
                <path id="Path_27" data-name="Path 27" class="cls-3" d="M129.1,140.3c-5.4-5.4-14.2-5.4-19.7,0s-5.4,14.2,0,19.7c5.4,5.4,14.2,5.4,19.7,0,0,0,0,0,0,0,5.4-5.4,5.4-14.2,0-19.7"/>
              </g>
            </g>
          </g>
        </g>
      </g>
    </g>
    <g id="Group_94" data-name="Group 94" class="cls-70">
      <g id="Group_93" data-name="Group 93">
        <g class="cls-23">
          <g id="Group_92" data-name="Group 92">
            <g class="cls-26">
              <g id="Group_91" data-name="Group 91">
                <path id="Path_28" data-name="Path 28" class="cls-3" d="M103.3,171.4c-6-6-15.7-6-21.6,0-6,6-6,15.7,0,21.6,6,6,15.7,6,21.6,0,6-6,6-15.7,0-21.6,0,0,0,0,0,0"/>
              </g>
            </g>
          </g>
        </g>
      </g>
    </g>
    <g id="Group_98" data-name="Group 98" class="cls-67">
      <g id="Group_97" data-name="Group 97">
        <g class="cls-20">
          <g id="Group_96" data-name="Group 96">
            <g class="cls-21">
              <g id="Group_95" data-name="Group 95">
                <path id="Path_29" data-name="Path 29" class="cls-3" d="M89.8,216.5c-6.6-6.6-17.2-6.6-23.8,0-6.6,6.6-6.6,17.2,0,23.8,6.6,6.6,17.2,6.6,23.8,0,6.6-6.6,6.6-17.2,0-23.8"/>
              </g>
            </g>
          </g>
        </g>
      </g>
    </g>
    <g id="Group_102" data-name="Group 102" class="cls-68">
      <g id="Group_101" data-name="Group 101">
        <g class="cls-27">
          <g id="Group_100" data-name="Group 100">
            <g class="cls-25">
              <g id="Group_99" data-name="Group 99">
                <path id="Path_30" data-name="Path 30" class="cls-3" d="M92.3,273.5c-7.2-7.2-18.9-7.2-26.2,0-7.2,7.2-7.2,18.9,0,26.2,7.2,7.2,18.9,7.2,26.2,0,0,0,0,0,0,0,7.2-7.2,7.2-18.9,0-26.2"/>
              </g>
            </g>
          </g>
        </g>
      </g>
    </g>
    <g id="Group_103" data-name="Group 103">
      <path id="Path_31" data-name="Path 31" class="cls-3" d="M200.6,275.2c0,7,5.6,12.6,12.6,12.7,7,0,12.6-5.6,12.7-12.6,0-7-5.6-12.6-12.6-12.7h0c-7,0-12.6,5.7-12.6,12.6"/>
    </g>
    <g id="Group_107" data-name="Group 107" class="cls-69">
      <g id="Group_106" data-name="Group 106">
        <g class="cls-28">
          <g id="Group_105" data-name="Group 105">
            <g class="cls-29">
              <g id="Group_104" data-name="Group 104">
                <path id="Path_32" data-name="Path 32" class="cls-3" d="M234.4,283.6c0,7.7,6.2,13.9,13.9,13.9s13.9-6.2,13.9-13.9c0-7.7-6.2-13.9-13.9-13.9h0c-7.7,0-13.9,6.2-13.9,13.9"/>
              </g>
            </g>
          </g>
        </g>
      </g>
    </g>
    <g id="Group_111" data-name="Group 111" class="cls-70">
      <g id="Group_110" data-name="Group 110">
        <g class="cls-46">
          <g id="Group_109" data-name="Group 109">
            <g class="cls-47">
              <g id="Group_108" data-name="Group 108">
                <path id="Path_33" data-name="Path 33" class="cls-3" d="M274.6,279.9c0,8.4,6.9,15.3,15.3,15.3,8.4,0,15.3-6.9,15.3-15.3,0-8.4-6.9-15.3-15.3-15.3-8.4,0-15.3,6.9-15.3,15.3h0"/>
              </g>
            </g>
          </g>
        </g>
      </g>
    </g>
    <g id="Group_115" data-name="Group 115" class="cls-67">
      <g id="Group_114" data-name="Group 114">
        <g class="cls-48">
          <g id="Group_113" data-name="Group 113">
            <g class="cls-44">
              <g id="Group_112" data-name="Group 112">
                <path id="Path_34" data-name="Path 34" class="cls-3" d="M316.1,257.4c0,9.3,7.5,16.8,16.8,16.8,9.3,0,16.8-7.5,16.8-16.8,0-9.3-7.5-16.8-16.8-16.8h0c-9.3,0-16.8,7.5-16.8,16.8"/>
              </g>
            </g>
          </g>
        </g>
      </g>
    </g>
    <g id="Group_119" data-name="Group 119" class="cls-68">
      <g id="Group_118" data-name="Group 118">
        <g class="cls-45">
          <g id="Group_117" data-name="Group 117">
            <g class="cls-49">
              <g id="Group_116" data-name="Group 116">
                <path id="Path_35" data-name="Path 35" class="cls-3" d="M354.6,215.4c0,10.2,8.3,18.5,18.5,18.5s18.5-8.3,18.5-18.5c0-10.2-8.3-18.5-18.5-18.5h0c-10.2,0-18.5,8.3-18.5,18.5"/>
              </g>
            </g>
          </g>
        </g>
      </g>
    </g>
    <g id="Group_120" data-name="Group 120">
      <path id="Path_36" data-name="Path 36" class="cls-3" d="M279.2,137.6c4.9-4.9,4.9-12.9,0-17.9-4.9-4.9-12.9-4.9-17.9,0-4.9,4.9-4.9,12.9,0,17.9,0,0,0,0,0,0,4.9,4.9,12.9,4.9,17.9,0,0,0,0,0,0,0"/>
    </g>
    <g id="Group_124" data-name="Group 124" class="cls-69">
      <g id="Group_123" data-name="Group 123">
        <g class="cls-50">
          <g id="Group_122" data-name="Group 122">
            <g class="cls-51">
              <g id="Group_121" data-name="Group 121">
                <path id="Path_37" data-name="Path 37" class="cls-3" d="M261.2,107.8c5.4-5.4,5.4-14.2,0-19.7-5.4-5.4-14.2-5.4-19.7,0-5.4,5.4-5.4,14.2,0,19.7,0,0,0,0,0,0,5.4,5.4,14.2,5.4,19.7,0"/>
              </g>
            </g>
          </g>
        </g>
      </g>
    </g>
    <g id="Group_128" data-name="Group 128" class="cls-70">
      <g id="Group_127" data-name="Group 127">
        <g class="cls-52">
          <g id="Group_126" data-name="Group 126">
            <g class="cls-55">
              <g id="Group_125" data-name="Group 125">
                <path id="Path_38" data-name="Path 38" class="cls-3" d="M230.2,82c6-6,6-15.7,0-21.6-6-6-15.7-6-21.6,0-6,6-6,15.6,0,21.6,6,6,15.7,6,21.6,0"/>
              </g>
            </g>
          </g>
        </g>
      </g>
    </g>
    <g id="Group_132" data-name="Group 132" class="cls-67">
      <g id="Group_131" data-name="Group 131">
        <g class="cls-13">
          <g id="Group_130" data-name="Group 130">
            <g class="cls-53">
              <g id="Group_129" data-name="Group 129">
                <path id="Path_39" data-name="Path 39" class="cls-3" d="M185,68.5c6.6-6.6,6.6-17.2,0-23.8-6.6-6.6-17.2-6.6-23.8,0-6.6,6.6-6.6,17.2,0,23.8,0,0,0,0,0,0,6.6,6.6,17.2,6.6,23.8,0"/>
              </g>
            </g>
          </g>
        </g>
      </g>
    </g>
    <g id="Group_136" data-name="Group 136" class="cls-68">
      <g id="Group_135" data-name="Group 135">
        <g class="cls-54">
          <g id="Group_134" data-name="Group 134">
            <g class="cls-56">
              <g id="Group_133" data-name="Group 133">
                <path id="Path_40" data-name="Path 40" class="cls-3" d="M128,71c7.2-7.2,7.2-18.9,0-26.2-7.2-7.2-18.9-7.2-26.2,0-7.2,7.2-7.2,18.9,0,26.2,0,0,0,0,0,0,7.2,7.2,18.9,7.2,26.2,0"/>
              </g>
            </g>
          </g>
        </g>
      </g>
    </g>
  </g>
</svg>