<?xml version="1.0" encoding="utf-8"?>
<!-- Generator: Adobe Illustrator 14.0.0, SVG Export Plug-In . SVG Version: 6.00 Build 43363)  -->
<!DOCTYPE svg PUBLIC "-//W3C//DTD SVG 1.1//EN" "http://www.w3.org/Graphics/SVG/1.1/DTD/svg11.dtd">
<svg version="1.1" id="Layer_1" xmlns="http://www.w3.org/2000/svg" xmlns:xlink="http://www.w3.org/1999/xlink" x="0px" y="0px"
	 width="416.333px" height="91.333px" viewBox="0 0 416.333 91.333" enable-background="new 0 0 416.333 91.333"
	 xml:space="preserve">
<g>
	<defs>
		<rect id="SVGID_1_" x="0.167" y="0.667" width="414.836" height="89.999"/>
	</defs>
	<clipPath id="SVGID_2_">
		<use xlink:href="#SVGID_1_"  overflow="visible"/>
	</clipPath>
	<path clip-path="url(#SVGID_2_)" fill="#6E94CD" d="M23.819,42.977c-1.741,0-3.157,1.411-3.157,3.153
		c0,1.746,1.416,3.161,3.157,3.161c1.743,0,3.157-1.415,3.157-3.161C26.976,44.388,25.562,42.977,23.819,42.977"/>
	<g opacity="0.88" clip-path="url(#SVGID_2_)">
		<g>
			<defs>
				<rect id="SVGID_3_" x="18.247" y="51.417" width="6.943" height="6.939"/>
			</defs>
			<clipPath id="SVGID_4_">
				<use xlink:href="#SVGID_3_"  overflow="visible"/>
			</clipPath>
			<g clip-path="url(#SVGID_4_)">
				<defs>
					<rect id="SVGID_5_" x="18.247" y="51.415" width="6.943" height="6.939"/>
				</defs>
				<clipPath id="SVGID_6_">
					<use xlink:href="#SVGID_5_"  overflow="visible"/>
				</clipPath>
				<path clip-path="url(#SVGID_6_)" fill="#6E94CD" d="M21.718,51.415c-1.917,0-3.472,1.555-3.472,3.47
					c0,1.918,1.555,3.47,3.472,3.47c1.918,0,3.471-1.552,3.471-3.47C25.189,52.969,23.636,51.415,21.718,51.415"/>
			</g>
		</g>
	</g>
	<g opacity="0.76" clip-path="url(#SVGID_2_)">
		<g>
			<defs>
				<rect id="SVGID_7_" x="18.833" y="61.447" width="7.638" height="7.64"/>
			</defs>
			<clipPath id="SVGID_8_">
				<use xlink:href="#SVGID_7_"  overflow="visible"/>
			</clipPath>
			<g clip-path="url(#SVGID_8_)">
				<defs>
					<rect id="SVGID_9_" x="18.833" y="61.451" width="7.639" height="7.638"/>
				</defs>
				<clipPath id="SVGID_10_">
					<use xlink:href="#SVGID_9_"  overflow="visible"/>
				</clipPath>
				<path clip-path="url(#SVGID_10_)" fill="#6E94CD" d="M22.65,61.452c-2.107,0-3.817,1.709-3.817,3.818
					c0,2.11,1.71,3.819,3.817,3.819c2.111,0,3.823-1.709,3.823-3.819C26.473,63.161,24.761,61.452,22.65,61.452"/>
			</g>
		</g>
	</g>
	<g opacity="0.64" clip-path="url(#SVGID_2_)">
		<g>
			<defs>
				<rect id="SVGID_11_" x="24.054" y="71.807" width="8.4" height="8.399"/>
			</defs>
			<clipPath id="SVGID_12_">
				<use xlink:href="#SVGID_11_"  overflow="visible"/>
			</clipPath>
			<g clip-path="url(#SVGID_12_)">
				<defs>
					<rect id="SVGID_13_" x="24.054" y="71.804" width="8.4" height="8.401"/>
				</defs>
				<clipPath id="SVGID_14_">
					<use xlink:href="#SVGID_13_"  overflow="visible"/>
				</clipPath>
				<path clip-path="url(#SVGID_14_)" fill="#6E94CD" d="M28.255,71.804c-2.323,0-4.201,1.884-4.201,4.2
					c0,2.319,1.878,4.203,4.201,4.203c2.318,0,4.199-1.884,4.199-4.203C32.454,73.688,30.573,71.804,28.255,71.804"/>
			</g>
		</g>
	</g>
	<g opacity="0.52" clip-path="url(#SVGID_2_)">
		<g>
			<defs>
				<rect id="SVGID_15_" x="34.135" y="81.417" width="9.244" height="9.25"/>
			</defs>
			<clipPath id="SVGID_16_">
				<use xlink:href="#SVGID_15_"  overflow="visible"/>
			</clipPath>
			<g clip-path="url(#SVGID_16_)">
				<defs>
					<rect id="SVGID_17_" x="34.135" y="81.418" width="9.243" height="9.247"/>
				</defs>
				<clipPath id="SVGID_18_">
					<use xlink:href="#SVGID_17_"  overflow="visible"/>
				</clipPath>
				<path clip-path="url(#SVGID_18_)" fill="#6E94CD" d="M38.756,81.418c-2.551,0-4.62,2.072-4.62,4.624s2.069,4.622,4.62,4.622
					c2.552,0,4.622-2.07,4.622-4.622S41.309,81.418,38.756,81.418"/>
			</g>
		</g>
	</g>
	<path clip-path="url(#SVGID_2_)" fill="#6E94CD" d="M58.175,62.586c1.234,1.234,3.231,1.234,4.465,0
		c1.231-1.235,1.231-3.231,0-4.462c-1.234-1.236-3.231-1.236-4.465,0C56.94,59.355,56.94,61.351,58.175,62.586"/>
	<g opacity="0.88" clip-path="url(#SVGID_2_)">
		<g>
			<defs>
				<rect id="SVGID_19_" x="64.608" y="52.176" width="6.944" height="6.95"/>
			</defs>
			<clipPath id="SVGID_20_">
				<use xlink:href="#SVGID_19_"  overflow="visible"/>
			</clipPath>
			<g clip-path="url(#SVGID_20_)">
				<defs>
					<rect id="SVGID_21_" x="64.608" y="52.18" width="6.944" height="6.942"/>
				</defs>
				<clipPath id="SVGID_22_">
					<use xlink:href="#SVGID_21_"  overflow="visible"/>
				</clipPath>
				<path clip-path="url(#SVGID_22_)" fill="#6E94CD" d="M65.625,58.107c1.354,1.353,3.555,1.353,4.912,0
					c1.353-1.356,1.353-3.555,0-4.911c-1.357-1.354-3.558-1.354-4.912,0C64.271,54.552,64.271,56.75,65.625,58.107"/>
			</g>
		</g>
	</g>
	<g opacity="0.76" clip-path="url(#SVGID_2_)">
		<g>
			<defs>
				<rect id="SVGID_23_" x="70.945" y="43.827" width="7.638" height="7.64"/>
			</defs>
			<clipPath id="SVGID_24_">
				<use xlink:href="#SVGID_23_"  overflow="visible"/>
			</clipPath>
			<g clip-path="url(#SVGID_24_)">
				<defs>
					<rect id="SVGID_25_" x="70.945" y="43.826" width="7.638" height="7.639"/>
				</defs>
				<clipPath id="SVGID_26_">
					<use xlink:href="#SVGID_25_"  overflow="visible"/>
				</clipPath>
				<path clip-path="url(#SVGID_26_)" fill="#6E94CD" d="M72.064,50.343c1.49,1.496,3.91,1.496,5.402,0
					c1.489-1.485,1.489-3.907,0-5.399c-1.492-1.491-3.912-1.491-5.402,0C70.572,46.436,70.572,48.858,72.064,50.343"/>
			</g>
		</g>
	</g>
	<g opacity="0.64" clip-path="url(#SVGID_2_)">
		<g>
			<defs>
				<rect id="SVGID_27_" x="74.194" y="31.896" width="8.401" height="8.4"/>
			</defs>
			<clipPath id="SVGID_28_">
				<use xlink:href="#SVGID_27_"  overflow="visible"/>
			</clipPath>
			<g clip-path="url(#SVGID_28_)">
				<defs>
					<rect id="SVGID_29_" x="74.194" y="31.895" width="8.401" height="8.401"/>
				</defs>
				<clipPath id="SVGID_30_">
					<use xlink:href="#SVGID_29_"  overflow="visible"/>
				</clipPath>
				<path clip-path="url(#SVGID_30_)" fill="#6E94CD" d="M75.425,39.062c1.64,1.644,4.301,1.644,5.939,0
					c1.643-1.637,1.643-4.299,0-5.938c-1.638-1.64-4.299-1.64-5.939,0C73.784,34.764,73.784,37.425,75.425,39.062"/>
			</g>
		</g>
	</g>
	<g opacity="0.52" clip-path="url(#SVGID_2_)">
		<g>
			<defs>
				<rect id="SVGID_31_" x="73.444" y="16.957" width="9.24" height="9.24"/>
			</defs>
			<clipPath id="SVGID_32_">
				<use xlink:href="#SVGID_31_"  overflow="visible"/>
			</clipPath>
			<g clip-path="url(#SVGID_32_)">
				<defs>
					<rect id="SVGID_33_" x="73.444" y="16.953" width="9.239" height="9.24"/>
				</defs>
				<clipPath id="SVGID_34_">
					<use xlink:href="#SVGID_33_"  overflow="visible"/>
				</clipPath>
				<path clip-path="url(#SVGID_34_)" fill="#6E94CD" d="M74.798,24.839c1.803,1.803,4.728,1.803,6.534,0
					c1.804-1.805,1.804-4.73,0-6.534c-1.806-1.805-4.731-1.805-6.534,0C72.994,20.109,72.994,23.035,74.798,24.839"/>
			</g>
		</g>
	</g>
	<path clip-path="url(#SVGID_2_)" fill="#6E94CD" d="M47.849,24.515c0-1.747-1.41-3.158-3.154-3.158
		c-1.742,0-3.156,1.411-3.156,3.158c0,1.739,1.414,3.156,3.156,3.156C46.439,27.671,47.849,26.254,47.849,24.515"/>
	<g opacity="0.88" clip-path="url(#SVGID_2_)">
		<g>
			<defs>
				<rect id="SVGID_35_" x="32.471" y="18.937" width="6.944" height="6.95"/>
			</defs>
			<clipPath id="SVGID_36_">
				<use xlink:href="#SVGID_35_"  overflow="visible"/>
			</clipPath>
			<g clip-path="url(#SVGID_36_)">
				<defs>
					<rect id="SVGID_37_" x="32.471" y="18.94" width="6.944" height="6.945"/>
				</defs>
				<clipPath id="SVGID_38_">
					<use xlink:href="#SVGID_37_"  overflow="visible"/>
				</clipPath>
				<path clip-path="url(#SVGID_38_)" fill="#6E94CD" d="M39.415,22.411c0-1.915-1.554-3.471-3.473-3.471
					c-1.917,0-3.471,1.556-3.471,3.471c0,1.919,1.554,3.475,3.471,3.475C37.86,25.886,39.415,24.33,39.415,22.411"/>
			</g>
		</g>
	</g>
	<g opacity="0.76" clip-path="url(#SVGID_2_)">
		<g>
			<defs>
				<rect id="SVGID_39_" x="21.737" y="19.527" width="7.639" height="7.64"/>
			</defs>
			<clipPath id="SVGID_40_">
				<use xlink:href="#SVGID_39_"  overflow="visible"/>
			</clipPath>
			<g clip-path="url(#SVGID_40_)">
				<defs>
					<rect id="SVGID_41_" x="21.737" y="19.528" width="7.639" height="7.639"/>
				</defs>
				<clipPath id="SVGID_42_">
					<use xlink:href="#SVGID_41_"  overflow="visible"/>
				</clipPath>
				<path clip-path="url(#SVGID_42_)" fill="#6E94CD" d="M29.376,23.348c0-2.111-1.71-3.82-3.82-3.82s-3.819,1.709-3.819,3.82
					c0,2.109,1.709,3.819,3.819,3.819S29.376,25.457,29.376,23.348"/>
			</g>
		</g>
	</g>
	<g opacity="0.64" clip-path="url(#SVGID_2_)">
		<g>
			<defs>
				<rect id="SVGID_43_" x="10.62" y="24.747" width="8.401" height="8.4"/>
			</defs>
			<clipPath id="SVGID_44_">
				<use xlink:href="#SVGID_43_"  overflow="visible"/>
			</clipPath>
			<g clip-path="url(#SVGID_44_)">
				<defs>
					<rect id="SVGID_45_" x="10.62" y="24.75" width="8.401" height="8.397"/>
				</defs>
				<clipPath id="SVGID_46_">
					<use xlink:href="#SVGID_45_"  overflow="visible"/>
				</clipPath>
				<path clip-path="url(#SVGID_46_)" fill="#6E94CD" d="M19.021,28.95c0-2.323-1.881-4.201-4.203-4.201
					c-2.319,0-4.2,1.878-4.2,4.201c0,2.32,1.881,4.197,4.2,4.197C17.141,33.147,19.021,31.27,19.021,28.95"/>
			</g>
		</g>
	</g>
	<g opacity="0.52" clip-path="url(#SVGID_2_)">
		<g>
			<defs>
				<rect id="SVGID_47_" x="0.166" y="34.836" width="9.24" height="9.23"/>
			</defs>
			<clipPath id="SVGID_48_">
				<use xlink:href="#SVGID_47_"  overflow="visible"/>
			</clipPath>
			<g clip-path="url(#SVGID_48_)">
				<defs>
					<rect id="SVGID_49_" x="0.166" y="34.832" width="9.241" height="9.238"/>
				</defs>
				<clipPath id="SVGID_50_">
					<use xlink:href="#SVGID_49_"  overflow="visible"/>
				</clipPath>
				<path clip-path="url(#SVGID_50_)" fill="#6E94CD" d="M9.406,39.449c0-2.553-2.068-4.617-4.621-4.617
					c-2.555,0-4.618,2.064-4.618,4.617c0,2.556,2.063,4.621,4.618,4.621C7.338,44.07,9.406,42.005,9.406,39.449"/>
			</g>
		</g>
	</g>
	<path clip-path="url(#SVGID_2_)" fill="#6E94CD" d="M28.136,58.781c-1.234,1.233-1.234,3.229,0,4.465
		c1.234,1.231,3.231,1.231,4.466,0c1.232-1.236,1.232-3.231,0-4.465C31.367,57.546,29.37,57.546,28.136,58.781"/>
	<g opacity="0.88" clip-path="url(#SVGID_2_)">
		<g>
			<defs>
				<rect id="SVGID_51_" x="31.6" y="65.216" width="6.946" height="6.95"/>
			</defs>
			<clipPath id="SVGID_52_">
				<use xlink:href="#SVGID_51_"  overflow="visible"/>
			</clipPath>
			<g clip-path="url(#SVGID_52_)">
				<defs>
					<rect id="SVGID_53_" x="31.6" y="65.217" width="6.945" height="6.944"/>
				</defs>
				<clipPath id="SVGID_54_">
					<use xlink:href="#SVGID_53_"  overflow="visible"/>
				</clipPath>
				<path clip-path="url(#SVGID_54_)" fill="#6E94CD" d="M32.616,66.234c-1.354,1.354-1.354,3.554,0,4.91
					c1.355,1.356,3.558,1.356,4.912,0c1.356-1.356,1.356-3.556,0-4.91C36.174,64.879,33.971,64.879,32.616,66.234"/>
			</g>
		</g>
	</g>
	<g opacity="0.76" clip-path="url(#SVGID_2_)">
		<g>
			<defs>
				<rect id="SVGID_55_" x="39.257" y="71.557" width="7.637" height="7.629"/>
			</defs>
			<clipPath id="SVGID_56_">
				<use xlink:href="#SVGID_55_"  overflow="visible"/>
			</clipPath>
			<g clip-path="url(#SVGID_56_)">
				<defs>
					<rect id="SVGID_57_" x="39.257" y="71.553" width="7.638" height="7.637"/>
				</defs>
				<clipPath id="SVGID_58_">
					<use xlink:href="#SVGID_57_"  overflow="visible"/>
				</clipPath>
				<path clip-path="url(#SVGID_58_)" fill="#6E94CD" d="M40.376,72.67c-1.492,1.492-1.492,3.914,0,5.4
					c1.492,1.493,3.91,1.493,5.399,0c1.492-1.486,1.492-3.908,0-5.4C44.286,71.181,41.868,71.181,40.376,72.67"/>
			</g>
		</g>
	</g>
	<g opacity="0.64" clip-path="url(#SVGID_2_)">
		<g>
			<defs>
				<rect id="SVGID_59_" x="50.429" y="74.796" width="8.402" height="8.41"/>
			</defs>
			<clipPath id="SVGID_60_">
				<use xlink:href="#SVGID_59_"  overflow="visible"/>
			</clipPath>
			<g clip-path="url(#SVGID_60_)">
				<defs>
					<rect id="SVGID_61_" x="50.429" y="74.801" width="8.401" height="8.404"/>
				</defs>
				<clipPath id="SVGID_62_">
					<use xlink:href="#SVGID_61_"  overflow="visible"/>
				</clipPath>
				<path clip-path="url(#SVGID_62_)" fill="#6E94CD" d="M51.66,76.032c-1.641,1.64-1.641,4.304,0,5.942
					c1.637,1.642,4.299,1.642,5.939,0c1.643-1.639,1.643-4.303,0-5.942C55.958,74.391,53.297,74.391,51.66,76.032"/>
			</g>
		</g>
	</g>
	<g opacity="0.52" clip-path="url(#SVGID_2_)">
		<g>
			<defs>
				<rect id="SVGID_63_" x="64.531" y="74.046" width="9.243" height="9.25"/>
			</defs>
			<clipPath id="SVGID_64_">
				<use xlink:href="#SVGID_63_"  overflow="visible"/>
			</clipPath>
			<g clip-path="url(#SVGID_64_)">
				<defs>
					<rect id="SVGID_65_" x="64.531" y="74.05" width="9.243" height="9.245"/>
				</defs>
				<clipPath id="SVGID_66_">
					<use xlink:href="#SVGID_65_"  overflow="visible"/>
				</clipPath>
				<path clip-path="url(#SVGID_66_)" fill="#6E94CD" d="M65.884,75.403c-1.806,1.805-1.806,4.732,0,6.538
					c1.805,1.806,4.731,1.806,6.535,0c1.807-1.806,1.807-4.733,0-6.538C70.615,73.601,67.689,73.601,65.884,75.403"/>
			</g>
		</g>
	</g>
	<path clip-path="url(#SVGID_2_)" fill="#6E94CD" d="M66.297,48.356c1.742,0,3.156-1.416,3.156-3.158
		c0-1.741-1.414-3.155-3.156-3.155c-1.743,0-3.158,1.414-3.158,3.155C63.14,46.94,64.555,48.356,66.297,48.356"/>
	<g opacity="0.88" clip-path="url(#SVGID_2_)">
		<g>
			<defs>
				<rect id="SVGID_67_" x="64.924" y="32.977" width="6.945" height="6.94"/>
			</defs>
			<clipPath id="SVGID_68_">
				<use xlink:href="#SVGID_67_"  overflow="visible"/>
			</clipPath>
			<g clip-path="url(#SVGID_68_)">
				<defs>
					<rect id="SVGID_69_" x="64.924" y="32.973" width="6.945" height="6.943"/>
				</defs>
				<clipPath id="SVGID_70_">
					<use xlink:href="#SVGID_69_"  overflow="visible"/>
				</clipPath>
				<path clip-path="url(#SVGID_70_)" fill="#6E94CD" d="M68.397,39.916c1.918,0,3.473-1.554,3.473-3.469
					c0-1.916-1.555-3.474-3.473-3.474c-1.917,0-3.472,1.558-3.472,3.474C64.925,38.362,66.48,39.916,68.397,39.916"/>
			</g>
		</g>
	</g>
	<g opacity="0.76" clip-path="url(#SVGID_2_)">
		<g>
			<defs>
				<rect id="SVGID_71_" x="63.645" y="22.247" width="7.639" height="7.63"/>
			</defs>
			<clipPath id="SVGID_72_">
				<use xlink:href="#SVGID_71_"  overflow="visible"/>
			</clipPath>
			<g clip-path="url(#SVGID_72_)">
				<defs>
					<rect id="SVGID_73_" x="63.645" y="22.243" width="7.639" height="7.639"/>
				</defs>
				<clipPath id="SVGID_74_">
					<use xlink:href="#SVGID_73_"  overflow="visible"/>
				</clipPath>
				<path clip-path="url(#SVGID_74_)" fill="#6E94CD" d="M67.465,29.881c2.107,0,3.819-1.711,3.819-3.82
					c0-2.11-1.712-3.819-3.819-3.819c-2.11,0-3.82,1.709-3.82,3.819C63.645,28.17,65.355,29.881,67.465,29.881"/>
			</g>
		</g>
	</g>
	<g opacity="0.64" clip-path="url(#SVGID_2_)">
		<g>
			<defs>
				<rect id="SVGID_75_" x="57.663" y="11.126" width="8.399" height="8.4"/>
			</defs>
			<clipPath id="SVGID_76_">
				<use xlink:href="#SVGID_75_"  overflow="visible"/>
			</clipPath>
			<g clip-path="url(#SVGID_76_)">
				<defs>
					<rect id="SVGID_77_" x="57.663" y="11.124" width="8.399" height="8.404"/>
				</defs>
				<clipPath id="SVGID_78_">
					<use xlink:href="#SVGID_77_"  overflow="visible"/>
				</clipPath>
				<path clip-path="url(#SVGID_78_)" fill="#6E94CD" d="M61.861,19.527c2.32,0,4.2-1.881,4.2-4.201c0-2.323-1.88-4.203-4.2-4.203
					c-2.319,0-4.199,1.88-4.199,4.203C57.662,17.646,59.542,19.527,61.861,19.527"/>
			</g>
		</g>
	</g>
	<g opacity="0.52" clip-path="url(#SVGID_2_)">
		<g>
			<defs>
				<rect id="SVGID_79_" x="46.74" y="0.667" width="9.24" height="9.24"/>
			</defs>
			<clipPath id="SVGID_80_">
				<use xlink:href="#SVGID_79_"  overflow="visible"/>
			</clipPath>
			<g clip-path="url(#SVGID_80_)">
				<defs>
					<rect id="SVGID_81_" x="46.74" y="0.667" width="9.239" height="9.243"/>
				</defs>
				<clipPath id="SVGID_82_">
					<use xlink:href="#SVGID_81_"  overflow="visible"/>
				</clipPath>
				<path clip-path="url(#SVGID_82_)" fill="#6E94CD" d="M51.358,9.91c2.553,0,4.621-2.068,4.621-4.624
					c0-2.549-2.068-4.619-4.621-4.619c-2.551,0-4.618,2.07-4.618,4.619C46.741,7.842,48.808,9.91,51.358,9.91"/>
			</g>
		</g>
	</g>
	<path clip-path="url(#SVGID_2_)" fill="#6E94CD" d="M31.94,28.746c-1.232-1.235-3.23-1.235-4.463,0c-1.234,1.23-1.234,3.23,0,4.465
		c1.233,1.232,3.231,1.232,4.463,0C33.171,31.976,33.171,29.976,31.94,28.746"/>
	<g opacity="0.88" clip-path="url(#SVGID_2_)">
		<g>
			<defs>
				<rect id="SVGID_83_" x="18.564" y="32.207" width="6.942" height="6.95"/>
			</defs>
			<clipPath id="SVGID_84_">
				<use xlink:href="#SVGID_83_"  overflow="visible"/>
			</clipPath>
			<g clip-path="url(#SVGID_84_)">
				<defs>
					<rect id="SVGID_85_" x="18.564" y="32.211" width="6.943" height="6.941"/>
				</defs>
				<clipPath id="SVGID_86_">
					<use xlink:href="#SVGID_85_"  overflow="visible"/>
				</clipPath>
				<path clip-path="url(#SVGID_86_)" fill="#6E94CD" d="M24.49,33.229c-1.353-1.357-3.554-1.357-4.911,0
					c-1.353,1.351-1.353,3.55,0,4.907c1.357,1.354,3.558,1.354,4.911,0C25.845,36.779,25.845,34.58,24.49,33.229"/>
			</g>
		</g>
	</g>
	<g opacity="0.76" clip-path="url(#SVGID_2_)">
		<g>
			<defs>
				<rect id="SVGID_87_" x="11.532" y="39.867" width="7.639" height="7.64"/>
			</defs>
			<clipPath id="SVGID_88_">
				<use xlink:href="#SVGID_87_"  overflow="visible"/>
			</clipPath>
			<g clip-path="url(#SVGID_88_)">
				<defs>
					<rect id="SVGID_89_" x="11.532" y="39.865" width="7.639" height="7.64"/>
				</defs>
				<clipPath id="SVGID_90_">
					<use xlink:href="#SVGID_89_"  overflow="visible"/>
				</clipPath>
				<path clip-path="url(#SVGID_90_)" fill="#6E94CD" d="M18.051,40.983c-1.49-1.492-3.91-1.492-5.402,0
					c-1.49,1.49-1.49,3.911,0,5.403c1.492,1.491,3.912,1.491,5.403,0C19.544,44.895,19.544,42.474,18.051,40.983"/>
			</g>
		</g>
	</g>
	<g opacity="0.64" clip-path="url(#SVGID_2_)">
		<g>
			<defs>
				<rect id="SVGID_91_" x="7.52" y="51.037" width="8.401" height="8.399"/>
			</defs>
			<clipPath id="SVGID_92_">
				<use xlink:href="#SVGID_91_"  overflow="visible"/>
			</clipPath>
			<g clip-path="url(#SVGID_92_)">
				<defs>
					<rect id="SVGID_93_" x="7.52" y="51.037" width="8.401" height="8.403"/>
				</defs>
				<clipPath id="SVGID_94_">
					<use xlink:href="#SVGID_93_"  overflow="visible"/>
				</clipPath>
				<path clip-path="url(#SVGID_94_)" fill="#6E94CD" d="M14.69,52.263c-1.64-1.636-4.299-1.636-5.939,0
					c-1.642,1.643-1.642,4.305,0,5.942c1.64,1.646,4.299,1.646,5.939,0C16.331,56.568,16.331,53.906,14.69,52.263"/>
			</g>
		</g>
	</g>
	<g opacity="0.52" clip-path="url(#SVGID_2_)">
		<g>
			<defs>
				<rect id="SVGID_95_" x="7.43" y="65.136" width="9.242" height="9.24"/>
			</defs>
			<clipPath id="SVGID_96_">
				<use xlink:href="#SVGID_95_"  overflow="visible"/>
			</clipPath>
			<g clip-path="url(#SVGID_96_)">
				<defs>
					<rect id="SVGID_97_" x="7.43" y="65.139" width="9.242" height="9.241"/>
				</defs>
				<clipPath id="SVGID_98_">
					<use xlink:href="#SVGID_97_"  overflow="visible"/>
				</clipPath>
				<path clip-path="url(#SVGID_98_)" fill="#6E94CD" d="M15.318,66.493c-1.804-1.805-4.729-1.805-6.535,0
					c-1.804,1.807-1.804,4.729,0,6.533c1.806,1.807,4.731,1.807,6.535,0C17.122,71.221,17.122,68.299,15.318,66.493"/>
			</g>
		</g>
	</g>
	<path clip-path="url(#SVGID_2_)" fill="#6E94CD" d="M42.367,66.904c0,1.743,1.414,3.155,3.156,3.155
		c1.743,0,3.159-1.412,3.159-3.155s-1.416-3.154-3.159-3.154C43.781,63.75,42.367,65.161,42.367,66.904"/>
	<g opacity="0.88" clip-path="url(#SVGID_2_)">
		<g>
			<defs>
				<rect id="SVGID_99_" x="50.804" y="65.537" width="6.944" height="6.94"/>
			</defs>
			<clipPath id="SVGID_100_">
				<use xlink:href="#SVGID_99_"  overflow="visible"/>
			</clipPath>
			<g clip-path="url(#SVGID_100_)">
				<defs>
					<rect id="SVGID_101_" x="50.804" y="65.532" width="6.944" height="6.947"/>
				</defs>
				<clipPath id="SVGID_102_">
					<use xlink:href="#SVGID_101_"  overflow="visible"/>
				</clipPath>
				<path clip-path="url(#SVGID_102_)" fill="#6E94CD" d="M50.804,69.002c0,1.92,1.555,3.478,3.473,3.478
					c1.916,0,3.471-1.558,3.471-3.478c0-1.917-1.555-3.471-3.471-3.471C52.359,65.532,50.804,67.085,50.804,69.002"/>
			</g>
		</g>
	</g>
	<g opacity="0.76" clip-path="url(#SVGID_2_)">
		<g>
			<defs>
				<rect id="SVGID_103_" x="60.843" y="64.247" width="7.64" height="7.65"/>
			</defs>
			<clipPath id="SVGID_104_">
				<use xlink:href="#SVGID_103_"  overflow="visible"/>
			</clipPath>
			<g clip-path="url(#SVGID_104_)">
				<defs>
					<rect id="SVGID_105_" x="60.843" y="64.249" width="7.64" height="7.643"/>
				</defs>
				<clipPath id="SVGID_106_">
					<use xlink:href="#SVGID_105_"  overflow="visible"/>
				</clipPath>
				<path clip-path="url(#SVGID_106_)" fill="#6E94CD" d="M60.844,68.072c0,2.109,1.709,3.82,3.817,3.82
					c2.112,0,3.823-1.711,3.823-3.82c0-2.11-1.711-3.823-3.823-3.823C62.553,64.249,60.844,65.961,60.844,68.072"/>
			</g>
		</g>
	</g>
	<g opacity="0.64" clip-path="url(#SVGID_2_)">
		<g>
			<defs>
				<rect id="SVGID_107_" x="71.198" y="58.266" width="8.402" height="8.4"/>
			</defs>
			<clipPath id="SVGID_108_">
				<use xlink:href="#SVGID_107_"  overflow="visible"/>
			</clipPath>
			<g clip-path="url(#SVGID_108_)">
				<defs>
					<rect id="SVGID_109_" x="71.198" y="58.268" width="8.403" height="8.401"/>
				</defs>
				<clipPath id="SVGID_110_">
					<use xlink:href="#SVGID_109_"  overflow="visible"/>
				</clipPath>
				<path clip-path="url(#SVGID_110_)" fill="#6E94CD" d="M71.198,62.469c0,2.319,1.882,4.201,4.201,4.201
					c2.321,0,4.202-1.882,4.202-4.201s-1.881-4.2-4.202-4.2C73.08,58.269,71.198,60.15,71.198,62.469"/>
			</g>
		</g>
	</g>
	<g opacity="0.52" clip-path="url(#SVGID_2_)">
		<g>
			<defs>
				<rect id="SVGID_111_" x="80.813" y="47.346" width="9.243" height="9.24"/>
			</defs>
			<clipPath id="SVGID_112_">
				<use xlink:href="#SVGID_111_"  overflow="visible"/>
			</clipPath>
			<g clip-path="url(#SVGID_112_)">
				<defs>
					<rect id="SVGID_113_" x="80.813" y="47.344" width="9.243" height="9.246"/>
				</defs>
				<clipPath id="SVGID_114_">
					<use xlink:href="#SVGID_113_"  overflow="visible"/>
				</clipPath>
				<path clip-path="url(#SVGID_114_)" fill="#6E94CD" d="M80.814,51.965c0,2.553,2.07,4.625,4.618,4.625
					c2.556,0,4.625-2.072,4.625-4.625c0-2.551-2.069-4.621-4.625-4.621C82.884,47.344,80.814,49.415,80.814,51.965"/>
			</g>
		</g>
	</g>
	<path clip-path="url(#SVGID_2_)" fill="#6E94CD" d="M61.976,32.55c1.234-1.234,1.234-3.234,0-4.465
		c-1.232-1.229-3.23-1.229-4.463,0c-1.233,1.231-1.233,3.231,0,4.465S60.744,33.784,61.976,32.55"/>
	<g opacity="0.88" clip-path="url(#SVGID_2_)">
		<g>
			<defs>
				<rect id="SVGID_115_" x="51.569" y="19.167" width="6.944" height="6.95"/>
			</defs>
			<clipPath id="SVGID_116_">
				<use xlink:href="#SVGID_115_"  overflow="visible"/>
			</clipPath>
			<g clip-path="url(#SVGID_116_)">
				<defs>
					<rect id="SVGID_117_" x="51.569" y="19.171" width="6.944" height="6.945"/>
				</defs>
				<clipPath id="SVGID_118_">
					<use xlink:href="#SVGID_117_"  overflow="visible"/>
				</clipPath>
				<path clip-path="url(#SVGID_118_)" fill="#6E94CD" d="M57.496,25.099c1.357-1.356,1.357-3.555,0-4.912
					c-1.355-1.354-3.553-1.354-4.91,0c-1.355,1.357-1.355,3.555,0,4.912C53.943,26.457,56.141,26.457,57.496,25.099"/>
			</g>
		</g>
	</g>
	<g opacity="0.76" clip-path="url(#SVGID_2_)">
		<g>
			<defs>
				<rect id="SVGID_119_" x="43.217" y="12.136" width="7.639" height="7.641"/>
			</defs>
			<clipPath id="SVGID_120_">
				<use xlink:href="#SVGID_119_"  overflow="visible"/>
			</clipPath>
			<g clip-path="url(#SVGID_120_)">
				<defs>
					<rect id="SVGID_121_" x="43.217" y="12.141" width="7.639" height="7.637"/>
				</defs>
				<clipPath id="SVGID_122_">
					<use xlink:href="#SVGID_121_"  overflow="visible"/>
				</clipPath>
				<path clip-path="url(#SVGID_122_)" fill="#6E94CD" d="M49.74,18.66c1.489-1.49,1.489-3.907,0-5.399
					c-1.492-1.493-3.913-1.493-5.403,0c-1.492,1.492-1.492,3.909,0,5.399C45.827,20.15,48.248,20.15,49.74,18.66"/>
			</g>
		</g>
	</g>
	<g opacity="0.64" clip-path="url(#SVGID_2_)">
		<g>
			<defs>
				<rect id="SVGID_123_" x="31.284" y="8.126" width="8.404" height="8.4"/>
			</defs>
			<clipPath id="SVGID_124_">
				<use xlink:href="#SVGID_123_"  overflow="visible"/>
			</clipPath>
			<g clip-path="url(#SVGID_124_)">
				<defs>
					<rect id="SVGID_125_" x="31.284" y="8.126" width="8.404" height="8.404"/>
				</defs>
				<clipPath id="SVGID_126_">
					<use xlink:href="#SVGID_125_"  overflow="visible"/>
				</clipPath>
				<path clip-path="url(#SVGID_126_)" fill="#6E94CD" d="M38.457,15.3c1.64-1.64,1.64-4.301,0-5.942
					c-1.641-1.641-4.299-1.641-5.943,0c-1.639,1.641-1.639,4.302,0,5.942C34.158,16.941,36.815,16.941,38.457,15.3"/>
			</g>
		</g>
	</g>
	<g opacity="0.52" clip-path="url(#SVGID_2_)">
		<g>
			<defs>
				<rect id="SVGID_127_" x="16.34" y="8.037" width="9.245" height="9.24"/>
			</defs>
			<clipPath id="SVGID_128_">
				<use xlink:href="#SVGID_127_"  overflow="visible"/>
			</clipPath>
			<g clip-path="url(#SVGID_128_)">
				<defs>
					<rect id="SVGID_129_" x="16.34" y="8.038" width="9.245" height="9.242"/>
				</defs>
				<clipPath id="SVGID_130_">
					<use xlink:href="#SVGID_129_"  overflow="visible"/>
				</clipPath>
				<path clip-path="url(#SVGID_130_)" fill="#6E94CD" d="M24.231,15.928c1.804-1.805,1.804-4.732,0-6.536
					c-1.804-1.806-4.731-1.806-6.535,0c-1.807,1.804-1.807,4.731,0,6.536C19.5,17.73,22.427,17.73,24.231,15.928"/>
			</g>
		</g>
	</g>
	<path clip-path="url(#SVGID_2_)" fill="#6E94CD" d="M116.274,70.611c-0.503-3.534-3.079-5.437-6.61-5.437
		c-3.306,0-7.953,1.735-7.953,10.531c0,4.819,2.127,9.914,7.672,9.914c3.7,0,6.275-2.466,6.891-6.605h6.387
		c-1.177,7.505-5.826,11.65-13.278,11.65c-9.074,0-14.061-6.442-14.061-14.959c0-8.738,4.766-15.574,14.287-15.574
		c6.722,0,12.435,3.36,13.052,10.479H116.274z"/>
	<path clip-path="url(#SVGID_2_)" fill="#6E94CD" d="M125.405,75.37c0-8.852,5.322-15.238,14.621-15.238
		c9.302,0,14.624,6.387,14.624,15.238c0,8.907-5.322,15.295-14.624,15.295C130.727,90.665,125.405,84.277,125.405,75.37
		 M148.262,75.37c0-4.988-2.52-10.196-8.236-10.196c-5.713,0-8.233,5.208-8.233,10.196c0,5.041,2.52,10.25,8.233,10.25
		C145.742,85.62,148.262,80.411,148.262,75.37"/>
	<path clip-path="url(#SVGID_2_)" fill="#6E94CD" d="M158.851,49.88h6.385v14.845h0.112c1.569-2.631,4.873-4.595,8.684-4.595
		c6.274,0,10.251,3.361,10.251,9.861V89.88h-6.386V71.672c-0.111-4.537-1.906-6.5-5.658-6.5c-4.259,0-7.003,3.361-7.003,7.619V89.88
		h-6.385V49.88z"/>
	<path clip-path="url(#SVGID_2_)" fill="#6E94CD" d="M214.141,83.436c0,1.566,0.338,2.184,1.514,2.184c0.393,0,0.896,0,1.568-0.108
		v4.425c-0.953,0.336-2.969,0.729-4.035,0.729c-2.578,0-4.425-0.896-4.93-3.529c-2.517,2.465-6.61,3.529-10.028,3.529
		c-5.21,0-9.915-2.802-9.915-8.457c0-7.228,5.769-8.403,11.147-9.02c4.596-0.844,8.685-0.337,8.685-4.095
		c0-3.302-3.418-3.92-5.995-3.92c-3.583,0-6.107,1.457-6.384,4.594h-6.388c0.447-7.451,6.779-9.636,13.164-9.636
		c5.657,0,11.597,2.299,11.597,8.402V83.436z M207.754,75.37c-1.959,1.287-5.042,1.231-7.844,1.733
		c-2.743,0.45-5.209,1.459-5.209,4.82c0,2.855,3.643,3.696,5.884,3.696c2.799,0,7.169-1.457,7.169-5.49V75.37z"/>
	<path clip-path="url(#SVGID_2_)" fill="#6E94CD" d="M220.081,49.881h6.387v14.787h0.113c1.734-2.801,5.378-4.537,8.625-4.537
		c9.132,0,13.557,6.944,13.557,15.405c0,7.79-3.922,15.129-12.492,15.129c-3.922,0-8.123-0.954-10.028-4.763h-0.112v3.979h-6.049
		V49.881z M234.365,65.172c-5.377,0-8.123,4.09-8.123,10.25c0,5.827,2.97,10.197,8.123,10.197c5.827,0,8.013-5.152,8.013-10.197
		C242.377,70.159,239.631,65.172,234.365,65.172"/>
	<path clip-path="url(#SVGID_2_)" fill="#6E94CD" d="M253.301,49.88h2.127v5.771h-2.127V49.88z M253.301,61.085h2.127V89.88h-2.127
		V61.085z"/>
	<path clip-path="url(#SVGID_2_)" fill="#6E94CD" d="M261.087,61.085h2.126v6.16h0.114c1.457-4.312,5.825-6.834,10.306-6.834
		c10.141,0,10.256,8.122,10.256,11.651V89.88h-2.133V71.672c0-2.971-0.335-9.41-8.179-9.41c-6.441,0-10.364,4.983-10.364,12.045
		V89.88h-2.126V61.085z"/>
	<path clip-path="url(#SVGID_2_)" fill="#6E94CD" d="M289.543,49.88h2.131v5.771h-2.131V49.88z M289.543,61.085h2.131V89.88h-2.131
		V61.085z"/>
	<path clip-path="url(#SVGID_2_)" fill="#6E94CD" d="M311.981,49.88h2.127v5.771h-2.127V49.88z M311.981,61.085h2.127V89.88h-2.127
		V61.085z"/>
	<path clip-path="url(#SVGID_2_)" fill="#6E94CD" d="M307.92,62.934h-6.273v20.111c0,4.65,2.188,5.098,6.217,4.986v1.848
		c-4.369,0.277-8.572-0.336-8.348-6.834V62.934h-5.32v-1.85h5.32v-8.964h2.131v8.964h6.273V62.934z"/>
	<path clip-path="url(#SVGID_2_)" fill="#6E94CD" d="M339.43,84.559c0,1.68,0,3.473,1.906,3.473c0.391,0,0.898-0.059,1.568-0.168
		v1.792c-0.618,0.112-1.178,0.224-1.736,0.224c-3.363,0-3.867-1.848-3.867-4.199v-1.519h-0.112
		c-1.345,3.422-5.21,6.392-10.699,6.392c-5.435,0-9.635-2.074-9.635-8.125c0-6.724,5.825-8.119,10.587-8.517
		c9.523-0.673,9.916-1.288,9.916-5.994c0-1.287-1.458-5.655-8.014-5.655c-5.15,0-8.567,2.688-8.851,7.676h-2.128
		c0.279-6.332,4.202-9.525,10.979-9.525c5.045,0,10.086,1.566,10.086,7.505V84.559z M337.301,73.52
		c-1.681,1.902-6.273,1.682-10.42,2.238c-5.041,0.566-7.897,2.355-7.897,6.67c0,3.475,2.521,6.276,7.563,6.276
		c9.688,0,10.754-8.294,10.754-9.808V73.52z"/>
	<path clip-path="url(#SVGID_2_)" fill="#6E94CD" d="M355.676,62.934h-6.273v20.111c0,4.65,2.184,5.098,6.218,4.986v1.848
		c-4.368,0.277-8.569-0.336-8.347-6.834V62.934h-5.324v-1.85h5.324v-8.964h2.129v8.964h6.273V62.934z"/>
	<path clip-path="url(#SVGID_2_)" fill="#6E94CD" d="M358.981,49.88h2.131v5.771h-2.131V49.88z M358.981,61.085h2.131V89.88h-2.131
		V61.085z"/>
	<polygon clip-path="url(#SVGID_2_)" fill="#6E94CD" points="377.749,89.88 375.115,89.88 363.52,61.085 365.982,61.085 
		376.403,87.416 376.514,87.416 386.264,61.085 388.619,61.085 	"/>
	<path clip-path="url(#SVGID_2_)" fill="#6E94CD" d="M391.36,75.76c-0.109,6.779,3.473,12.943,10.589,12.943
		c5.433,0,9.3-3.252,10.308-8.576h2.127c-1.119,6.728-5.6,10.425-12.435,10.425c-8.403,0-12.826-6.613-12.714-14.568
		c-0.112-7.897,4.029-15.571,12.714-15.571c9.019,0,13.054,7.113,12.659,15.348H391.36z M412.481,73.911
		c-0.113-6.048-3.922-11.649-10.532-11.649c-6.387,0-10.137,5.937-10.589,11.649H412.481z"/>
</g>
</svg>
