<svg id="Group_334" data-name="Group 334" xmlns="http://www.w3.org/2000/svg" xmlns:xlink="http://www.w3.org/1999/xlink" width="47.623" height="51.035" viewBox="0 0 47.623 51.035">
  <defs>
    <clipPath id="clip-path">
      <rect id="Rectangle_257" data-name="Rectangle 257" width="47.623" height="51.035" fill="#fff"/>
    </clipPath>
  </defs>
  <g id="Group_333" data-name="Group 333" clip-path="url(#clip-path)">
    <path id="Path_140" data-name="Path 140" d="M76.732,18.44a.58.58,0,0,0,.164.3c.946.92,5.761,5.514,7.8,5.514,2.018,0,6.681-3.837,7.6-4.606a.585.585,0,0,0,.2-.327l1.569-7.359s0-.005,0-.009a.1.1,0,0,1,0-.016c0-.014.007-.028.01-.042l.084-.4.017-.084v0l0-.01A9.54,9.54,0,0,0,94.34,9.64c0-.171,0-.341-.013-.512s-.022-.318-.039-.477a9.646,9.646,0,0,0-3.082-6.118c-.029-.027-.057-.054-.087-.081h0s0,0,0,0a9.36,9.36,0,0,0-1.308-.985A9.608,9.608,0,0,0,84.7,0a9.7,9.7,0,0,0-9,6.163c0,.009-.006.016-.009.024a9.457,9.457,0,0,0-.584,2.443h0a0,0,0,0,0,0,0v0a9.458,9.458,0,0,0-.053,1,9.563,9.563,0,0,0,.461,2.946Zm16.434-8.8a8.429,8.429,0,0,1-.12,1.426,6.284,6.284,0,0,1-3.363-2.9,3.593,3.593,0,0,1-.353-1.541,4.1,4.1,0,0,1,1.385-2.946A8.474,8.474,0,0,1,93.166,9.64M76.8,6.586c0-.007.005-.014.009-.021a8.47,8.47,0,0,1,12.31-4.151,4.887,4.887,0,0,1,.51.706,5.129,5.129,0,0,0-1.469,3.508,4.711,4.711,0,0,0,.294,1.629,9.8,9.8,0,0,1-6.182,1.994A9.906,9.906,0,0,1,76.315,8.44,8.394,8.394,0,0,1,76.8,6.586m1,4.009a12.145,12.145,0,0,0,4.475.831,12.494,12.494,0,0,0,3.444-.483,9.782,9.782,0,0,0,3.277-1.617,6.947,6.947,0,0,0,1.821,1.841A9.4,9.4,0,0,0,92.8,12.229L91.383,18.88c-2.018,1.679-5.485,4.2-6.686,4.2-1.128,0-4.637-2.915-6.854-5.058l-1.555-7.5-.022-.108c-.018-.2-.03-.409-.033-.615a9.723,9.723,0,0,0,1.562.79" transform="translate(-61.916 0.001)" fill="#fff"/>
    <path id="Path_141" data-name="Path 141" d="M46.51,149.562a1.84,1.84,0,0,0,.643-1.078c.326-2.012-3.929-11.087-4.82-12.959-1.588-4.3-10.74-4.883-11.375-4.917a1.872,1.872,0,0,1-.577-.165,1.379,1.379,0,0,1-.546-.457,3.07,3.07,0,0,1-.407-1.763,5.1,5.1,0,0,1,.1-.963A.586.586,0,0,0,28.387,127a5.53,5.53,0,0,0,.31,3.374c-.161.1-.332.2-.512.3-1.639.946-3.873,2.065-4.77,2.065h0c-.973,0-3.25-1.2-4.611-1.916l-.273-.144q-.264-.138-.48-.247A5.478,5.478,0,0,0,18.394,127a.586.586,0,0,0-1.144.259,5.325,5.325,0,0,1,.1,1.075,2.973,2.973,0,0,1-.408,1.652,1.391,1.391,0,0,1-.372.36,1.747,1.747,0,0,1-.752.262c-.636.035-9.8.618-11.379,4.924-.834,1.865-4.85,10.981-4.41,12.984a2.12,2.12,0,0,0,.93,1.239,5.608,5.608,0,0,0-.911,2.538.587.587,0,0,0,.53.637c.019,0,.037,0,.055,0a.586.586,0,0,0,.583-.532c0-.019.006-.037.008-.054.369-3.487,5.131-6.212,10.883-6.212,5.427,0,9.972,2.423,10.78,5.626H2.1a.586.586,0,0,0,0,1.173H45.43a.586.586,0,1,0,0-1.173H24.279c.808-3.2,5.354-5.626,10.779-5.626,5.833,0,11.024,2.839,11.387,6.212a.429.429,0,0,1,.007.054.589.589,0,0,0,.584.532c.018,0,.035,0,.054,0a.587.587,0,0,0,.531-.637,5.4,5.4,0,0,0-1.111-2.731M29.119,141.1a15.446,15.446,0,0,0-3.769,3.776,15.123,15.123,0,0,0-1.7,3.2,16.746,16.746,0,0,1-.345-4.43,10.227,10.227,0,0,1,5.809-8.994Zm9.7,4.233a19.147,19.147,0,0,0-3.76-.371c-4.424,0-8.325,1.548-10.429,3.867a13.9,13.9,0,0,1,1.72-3.334c2.759-3.934,7.292-6.25,13.477-6.892v6.1a.586.586,0,1,0,1.172,0v-6.742a.585.585,0,0,0-.189-.432.578.578,0,0,0-.445-.153,26.556,26.556,0,0,0-6.452,1.3,19.474,19.474,0,0,0-3.62,1.661v-6.618a.585.585,0,0,0-.821-.538,11.574,11.574,0,0,0-7.331,10.384,16.81,16.81,0,0,0,.026,2.411c-.208-.363-.439-.731-.7-1.1a16.612,16.612,0,0,0-8.179-6.064,26.154,26.154,0,0,0-6.833-1.437.58.58,0,0,0-.446.153.588.588,0,0,0-.189.432V144.7a.586.586,0,0,0,1.13.215.569.569,0,0,0,.043-.215v-6.1c6.186.642,10.717,2.958,13.478,6.892a13.942,13.942,0,0,1,1.5,2.772,14.863,14.863,0,0,0-9.866-3.3,18.092,18.092,0,0,0-3.958.431,12.409,12.409,0,0,0-6.473,3.438,1.06,1.06,0,0,1-.5-.567c-.264-1.2,2.382-7.9,4.344-12.272a.334.334,0,0,0,.017-.041c1.094-3.035,7.853-4.042,10.366-4.173l.039,0c.027,0,.053-.01.08-.014a2.875,2.875,0,0,0,1.188-.432c.247.117.663.334,1.042.535,2.052,1.078,3.99,2.046,5.152,2.051h.007c1.615,0,5.183-2.105,6.065-2.642a2.888,2.888,0,0,0,1.355.5l.041,0,.079,0c2.57.147,9.2,1.164,10.286,4.169.007.017.014.035.022.052C43.2,140.075,46.2,147.012,46,148.3a.722.722,0,0,1-.252.391,13.776,13.776,0,0,0-6.926-3.353" transform="translate(0 -104.388)" fill="#fff"/>
    <path id="Path_142" data-name="Path 142" d="M46.772,284.8H.877a.586.586,0,1,0,0,1.172h45.9a.586.586,0,1,0,0-1.172" transform="translate(-0.239 -234.941)" fill="#fff"/>
  </g>
</svg>
