<svg xmlns="http://www.w3.org/2000/svg" width="31" height="31" viewBox="0 0 31 31">
  <g id="Group_369" data-name="Group 369" transform="translate(-1159 -3372)">
    <circle id="Ellipse_7" data-name="Ellipse 7" cx="15.5" cy="15.5" r="15.5" transform="translate(1159 3372)" fill="#fff"/>
    <g id="instagram" transform="translate(1164 3377)">
      <path id="Path_109" data-name="Path 109" d="M13.052,4c2.458,0,2.765.009,3.73.054a6.644,6.644,0,0,1,2.2.421,4.649,4.649,0,0,1,2.648,2.648,6.737,6.737,0,0,1,.421,2.2c.041.964.054,1.272.054,3.73s-.009,2.765-.054,3.73a6.762,6.762,0,0,1-.421,2.2,4.354,4.354,0,0,1-1.046,1.6,4.43,4.43,0,0,1-1.6,1.046,6.737,6.737,0,0,1-2.2.421c-.964.041-1.272.054-3.73.054s-2.765-.009-3.73-.054a6.762,6.762,0,0,1-2.2-.421,4.649,4.649,0,0,1-2.648-2.648,6.619,6.619,0,0,1-.421-2.2C4.014,15.818,4,15.51,4,13.052s.009-2.765.054-3.73a6.619,6.619,0,0,1,.421-2.2,4.354,4.354,0,0,1,1.046-1.6,4.392,4.392,0,0,1,1.6-1.046,6.619,6.619,0,0,1,2.2-.421C10.287,4.014,10.595,4,13.052,4Zm0,4.526a4.526,4.526,0,1,0,4.526,4.526A4.528,4.528,0,0,0,13.052,8.526ZM18.936,8.3A1.132,1.132,0,1,0,17.8,9.431,1.132,1.132,0,0,0,18.936,8.3Zm-5.884,2.037a2.716,2.716,0,1,1-2.716,2.716A2.718,2.718,0,0,1,13.052,10.337Z" transform="translate(-2.19 -2.19)" fill="#3f4756"/>
      <path id="Path_110" data-name="Path 110" d="M0,0H21.725V21.725H0Z" fill="none"/>
    </g>
  </g>
</svg>
