<svg id="Group_327" data-name="Group 327" xmlns="http://www.w3.org/2000/svg" xmlns:xlink="http://www.w3.org/1999/xlink" width="54.122" height="54.123" viewBox="0 0 54.122 54.123">
  <defs>
    <clipPath id="clip-path">
      <rect id="Rectangle_254" data-name="Rectangle 254" width="54.122" height="54.123" fill="none" stroke="#707070" stroke-width="1"/>
    </clipPath>
  </defs>
  <g id="Group_326" data-name="Group 326" clip-path="url(#clip-path)">
    <path id="Path_128" data-name="Path 128" d="M60.881,34.089a26.377,26.377,0,0,0-9.3-19.782l-.011-.009a26.551,26.551,0,0,0-5.154-3.439q-.726-.369-1.478-.695a26.289,26.289,0,0,0-7.92-2.041h0Q35.746,8,34.442,8c-.075,0-.152,0-.227,0a.111.111,0,0,0-.031,0,26.24,26.24,0,0,0-4.288.388h0a26.218,26.218,0,0,0-8.746,3.19A26.465,26.465,0,0,0,8.783,28.027h0q-.292,1.172-.478,2.381s0,0,0,0A26.615,26.615,0,0,0,8,34.441q0,.847.053,1.682A26.471,26.471,0,0,0,26.3,59.607c.057.018.113.037.17.054q1.025.323,2.082.564.353.081.71.152h0A26.517,26.517,0,0,0,49,56.515q.461-.3.907-.627A26.41,26.41,0,0,0,60.884,34.441C60.884,34.323,60.883,34.206,60.881,34.089Z" transform="translate(-7.381 -7.38)" fill="none" stroke="#fff" stroke-linecap="round" stroke-linejoin="round" stroke-width="1"/>
    <path id="Path_129" data-name="Path 129" d="M220.23,60.73a9.825,9.825,0,0,1,.9-.837,26.377,26.377,0,0,0-9.3-19.782l-.011-.009a22.7,22.7,0,0,0-5.154-3.439q-.726-.369-1.478-.695c-.22.2.038.594-.405.764-1.2.461-.583,1.539-.935,2.177-.907,1.642-2.6,2.77-3.554.809-.471-.966,1.691-.613,1.435-1.971-.1-.544-1.377-.806-1.784-.966-1.466-.577-2.852-.916-4.118.275-.663.623-1.093,1.442-1.824,2.007-.635.491-1.524.586-1.366,1.487.111.632.755.574,1.426.717.363.078,1.192.81.628,1.4-.1.1-1.371.278-1.543.57-.324.55.381.966-.179,1.242-.7.343-1.6-.261-1.914-1.025-.7-1.726-2.06-2.315-2.614-1.572-.391.523.245,1.409.393,1.931.211.745-1.35.222-1.213,1.282.2,1.582,2.512.547,1.386,2.583-.611,1.105-2.554.18-3.368.954a1.206,1.206,0,0,0,.054,2,4,4,0,0,0,2.054-.055c1.3-.176,2.426-1.782,4.5-1.935a3.5,3.5,0,0,1,2.886,1.753c.272.648-.274,1.1.423,1.3.653.192.912-1.724,1.864-.657.33.369.43.966,1.077.886a.672.672,0,0,0,.621-.78c0-.428.293-.941.657-.709.233.149.171.6.346.9a1.932,1.932,0,0,0,1.812,1.252c.819.038,1.679-.34,1.749.8.054.9-.606,1.222-1.358,1.291-1.34.124-2.5-.567-3.775-.693-.934-.092-1.068.515-1.817.751-.917.288-1.493-.216-2.081-.845-.721-.772-.709-1.679-1.427-2.185-.534-.376-2.423-.09-3.029-.017-.776.093-1.444.331-2.224.486-1.29.256-1.881.328-2.6,1.121s-.416,1.467-.634,1.8c-.571.877-.984.634-1.728,1.354-1.484,1.436-1.345,2.831-1.281,4.77a5.276,5.276,0,0,0,1.97,4.241,5.115,5.115,0,0,0,4.678,1.248c1.152-.191,3.7-.077,4.154,1.3.19.582-.185,1.2-.028,1.78.226.84.958,1.522,1.215,2.385a4.71,4.71,0,0,1,.073,2.343,4.451,4.451,0,0,0,.187,2.989c.45,1.239.9,4.458,2.492,4.561a4.991,4.991,0,0,0,3.872-2.106c1.027-1.3,1.164-2.486,2.658-3.265a3.308,3.308,0,0,0,1.721-2.885,11.612,11.612,0,0,1,.041-2.189c.356-1.637,1.4-2.261,2.679-3.233.717-.545,3.665-2.956,2.275-3.956-.359-.258-2.166-.855-2.081-1.692.115-1.139,2.975-.647,4.3-1.064,1.606-.5,2.187-1.6.7-2.662-.63-.451-2.224-.535-2.888-.888a1.209,1.209,0,0,1-.21-2.168,1.717,1.717,0,0,1,1.832-.027c.716.359,1.588,1.3,2.354,1.523a4.7,4.7,0,0,1,3.07,2.042c.825,1.291.282,2.735.371,4.208.071,1.185-.174,2.674,1.028,2.492.653-.1.853-1.209,1.016-2.3A7.272,7.272,0,0,1,220.23,60.73Z" transform="translate(-167.633 -33.185)" fill="none" stroke="#fff" stroke-linecap="round" stroke-linejoin="round" stroke-width="1"/>
    <path id="Path_130" data-name="Path 130" d="M18.809,390.512A26.4,26.4,0,0,1,8.685,371.345c.427.553.815,1.016,1.1,1.332.609.667,1.344,1.215,1.909,1.925s.716,1.639,1.353,2.277c1.138,1.138,3.421.915,4.1,2.566a4.5,4.5,0,0,1-.067,2.253c-.1,1.072.642,1.891.679,2.955.025.73-.434,1.214-.5,1.891a3.246,3.246,0,0,0,.356,1.417A27.5,27.5,0,0,0,18.809,390.512Z" transform="translate(-8.013 -342.602)" fill="none" stroke="#fff" stroke-linecap="round" stroke-linejoin="round" stroke-width="1"/>
    <path id="Path_131" data-name="Path 131" d="M67.732,76.626c-1.241.571-1.844,1.727-3.025,2.409a8.555,8.555,0,0,1-2.618.4,26.534,26.534,0,0,1,3.959-4.8,1.419,1.419,0,0,1,.13-.079c2.341-1.427,5.751-2.926,8.305-2.028C76.973,73.4,70.134,75.52,67.732,76.626Z" transform="translate(-57.284 -66.664)" fill="none" stroke="#fff" stroke-linecap="round" stroke-linejoin="round" stroke-width="1"/>
  </g>
</svg>
