<svg id="Group_337" data-name="Group 337" xmlns="http://www.w3.org/2000/svg" xmlns:xlink="http://www.w3.org/1999/xlink" width="91.395" height="52.516" viewBox="0 0 91.395 52.516">
  <defs>
    <clipPath id="clip-path">
      <rect id="Rectangle_248" data-name="Rectangle 248" width="91.395" height="52.516" fill="#4c6488"/>
    </clipPath>
  </defs>
  <g id="Group_324" data-name="Group 324" clip-path="url(#clip-path)">
    <path id="Path_127" data-name="Path 127" d="M35.979,46.159a2.77,2.77,0,0,0-.305,3.2,3.457,3.457,0,0,0,.831.957l0,0a3.349,3.349,0,0,0,1.126.591,2.772,2.772,0,0,0,3.051-1.058l2.976-3.775a2.772,2.772,0,0,0,.318-3.213,3.31,3.31,0,0,0-.831-.958,3.359,3.359,0,0,0-1.129-.588,2.769,2.769,0,0,0-3.044,1.052l-2.983,3.781ZM43.9,6.325l-1.448-.818L27.069,9.333a.751.751,0,0,1-.552-.078L10.909,1.414A.745.745,0,1,1,11.574.08l15.4,7.738,15.4-3.833v0a.736.736,0,0,1,.545.075l2.6,1.47q1.641-.779,3.33-1.506a.728.728,0,0,1,.474-.039v0L64.745,7.818,77.563,1.593a.748.748,0,1,1,.649,1.347L65.161,9.275a.731.731,0,0,1-.513.058L49.221,5.5c-2.467,1.074-4.862,2.21-7.2,3.5a54.933,54.933,0,0,0-6.78,4.391,36.035,36.035,0,0,0-1.431,4.846,49.933,49.933,0,0,0-.85,5.148c.36,1.065.854,1.61,1.428,1.782a3.275,3.275,0,0,0,2.275-.451.547.547,0,0,1,.088-.045c2.509-1.074,3.849-3.642,5.109-6.05.211-.406.422-.805.623-1.175a.748.748,0,0,1,.237-.279A12.287,12.287,0,0,1,45,15.8a5.28,5.28,0,0,1,2.632-.454.711.711,0,0,1,.334.107,64.5,64.5,0,0,1,8.552,6.3,76.234,76.234,0,0,1,7.312,7.378l.052.062,3.83,5.157,8.416-4.378,14.128-8.52a.747.747,0,1,1,.772,1.279C83.119,27.5,76.563,31.4,68.553,35.6a3.9,3.9,0,0,1-.156,3.918,4.638,4.638,0,0,1-1.211,1.3,4.733,4.733,0,0,1-1.61.769,4.2,4.2,0,0,1-2.532-.11,3.985,3.985,0,0,1-.61,2.061,4.641,4.641,0,0,1-1.207,1.308,4.752,4.752,0,0,1-1.61.766A4.164,4.164,0,0,1,57,45.471a4.022,4.022,0,0,1-.61,1.986,4.669,4.669,0,0,1-1.207,1.3,4.818,4.818,0,0,1-1.61.769,4.11,4.11,0,0,1-3.483-.62,4.212,4.212,0,0,1-.542,1.386,4.633,4.633,0,0,1-1.211,1.3,4.75,4.75,0,0,1-1.61.766,4.164,4.164,0,0,1-4.541-1.678l-.133-.179-.2.253a4.2,4.2,0,0,1-4.641,1.568,4.815,4.815,0,0,1-1.629-.844v0A4.877,4.877,0,0,1,34.375,50.1a4.226,4.226,0,0,1-.571-2.389,4.187,4.187,0,0,1-2.454,0,4.868,4.868,0,0,1-2.834-2.236,4.183,4.183,0,0,1-.571-2.386,4.241,4.241,0,0,1-2.454,0,4.894,4.894,0,0,1-2.837-2.236,4.209,4.209,0,0,1-.571-2.386,4.24,4.24,0,0,1-2.454,0,4.92,4.92,0,0,1-2.837-2.236,4.2,4.2,0,0,1,.445-4.878v0l.1-.133L14.3,29.385.52,24.974a.747.747,0,1,1,.458-1.422L14.846,27.99a.79.79,0,0,1,.159.071l3.272,1.97.9-1.136.045-.052a4.191,4.191,0,0,1,4.6-1.516,4.816,4.816,0,0,1,1.629.844,4.9,4.9,0,0,1,1.207,1.389,4.492,4.492,0,0,1,.5,1.292,4.169,4.169,0,0,1,4.466-1.36,4.921,4.921,0,0,1,2.837,2.236,4.221,4.221,0,0,1,.571,2.386,4.2,4.2,0,0,1,2.45,0,4.861,4.861,0,0,1,2.837,2.236,4.111,4.111,0,0,1,.383,3.369,4.35,4.35,0,0,1,1.746.153,4.852,4.852,0,0,1,1.629.847v0a4.771,4.771,0,0,1,.691.662.75.75,0,0,1,1.259-.094l4.21,5.67a2.732,2.732,0,0,0,2.966,1.12,3.218,3.218,0,0,0,1.1-.526,3.054,3.054,0,0,0,.818-.88,2.562,2.562,0,0,0-.224-2.986l-.013-.016-4.015-5.407a.747.747,0,0,1,1.2-.889l4.21,5.667a2.729,2.729,0,0,0,2.966,1.123,3.284,3.284,0,0,0,1.1-.529,3.087,3.087,0,0,0,.818-.876,2.567,2.567,0,0,0-.224-2.989l-.013-.016-4.1-5.518a.747.747,0,0,1,1.2-.889l4.21,5.67a2.731,2.731,0,0,0,2.966,1.12,3.218,3.218,0,0,0,1.1-.526,3.147,3.147,0,0,0,.818-.88,2.553,2.553,0,0,0-.2-2.95.806.806,0,0,1-.058-.078L62.7,30.1a75,75,0,0,0-7.167-7.228,63,63,0,0,0-8.2-6.057,3.977,3.977,0,0,0-1.749.354,10.516,10.516,0,0,0-1.866,1.11c-.188.347-.367.685-.545,1.029-1.376,2.639-2.846,5.449-5.846,6.735a4.634,4.634,0,0,1-3.369.552,3.9,3.9,0,0,1-2.483-2.915.741.741,0,0,1-.026-.325,51.12,51.12,0,0,1,.9-5.443,36.91,36.91,0,0,1,1.568-5.258.773.773,0,0,1,.24-.321A56.432,56.432,0,0,1,41.3,7.688q1.285-.706,2.6-1.363M37.689,41.586l.971-1.23.033-.049a2.763,2.763,0,0,0,.321-3.21,3.351,3.351,0,0,0-.831-.958,3.408,3.408,0,0,0-1.126-.591,2.768,2.768,0,0,0-3.048,1.061l0,0-3.872,4.914a2.767,2.767,0,0,0-.318,3.21,3.352,3.352,0,0,0,.831.957,3.409,3.409,0,0,0,1.126.591,2.769,2.769,0,0,0,3.035-1.042l.016-.019ZM43.012,49.3l.373.5a2.734,2.734,0,0,0,2.97,1.123,3.286,3.286,0,0,0,1.1-.529,3.131,3.131,0,0,0,.818-.876,2.567,2.567,0,0,0-.227-2.989l-2.256-3.041a4.284,4.284,0,0,1-.961,3.5ZM28.144,31.985l-1.837,2.331c-.032.042-.062.084-.1.127L24.275,36.9l-.065.084a2.753,2.753,0,0,0-.256,3.129,3.4,3.4,0,0,0,1.957,1.545A2.77,2.77,0,0,0,28.962,40.6l3.872-4.911a2.772,2.772,0,0,0,.318-3.213,3.292,3.292,0,0,0-.831-.954,3.35,3.35,0,0,0-1.126-.591,2.772,2.772,0,0,0-3.051,1.058M23.1,35.974l1.938-2.457a2.773,2.773,0,0,0,.321-3.213,3.457,3.457,0,0,0-1.96-1.545,2.764,2.764,0,0,0-3.015,1.016l-.029.045-1.3,1.639-.026.033-.617.782h0a2.772,2.772,0,0,0-.318,3.213,3.456,3.456,0,0,0,1.96,1.545A2.768,2.768,0,0,0,23.1,35.974" transform="translate(0 -0.001)" fill="#4c6488"/>
  </g>
</svg>
