<svg id="Group_341" data-name="Group 341" xmlns="http://www.w3.org/2000/svg" xmlns:xlink="http://www.w3.org/1999/xlink" width="64.069" height="63.61" viewBox="0 0 64.069 63.61">
  <defs>
    <clipPath id="clip-path">
      <rect id="Rectangle_265" data-name="Rectangle 265" width="64.069" height="63.61" fill="#4c6488"/>
    </clipPath>
  </defs>
  <g id="Group_340" data-name="Group 340" clip-path="url(#clip-path)">
    <path id="Path_163" data-name="Path 163" d="M35.768,51.833l-.672.222A26.707,26.707,0,1,1,53.4,26.7a28.2,28.2,0,0,1-.865,6.7l-.463,1.806,1.827-.373a8.471,8.471,0,0,1,10.166,8.3,11.418,11.418,0,0,1-3.45,8.152L47.91,63.609Zm4.451-15.616a6.92,6.92,0,0,0-6.913,6.913,9.852,9.852,0,0,0,2.977,7.035L47.91,61.441,59.536,50.165a9.852,9.852,0,0,0,2.977-7.035,6.913,6.913,0,0,0-13.726-1.167H47.033a6.924,6.924,0,0,0-6.814-5.745M18.54,50.547l1.633.439a25.246,25.246,0,0,0,12.719.093l1.577-.4-.884-1.366A11.364,11.364,0,0,1,31.75,43.13a8.478,8.478,0,0,1,8.276-8.464l1.237-.028-.1-1.233c-.025-.314-.038-.624-.038-.922v-5.76a6.7,6.7,0,0,0-6.658-6.684,8.5,8.5,0,0,1-8.492-8.5V1.535l-1.259.1A25.32,25.32,0,0,0,5.623,13.006L4.459,14.792l2.131.019a8.407,8.407,0,0,1,8.288,7.659l.037.42L16.907,24.9a19.7,19.7,0,0,1,3.172,23.5l-.021.038ZM3.469,17.084A24.94,24.94,0,0,0,1.556,26.7,25.251,25.251,0,0,0,16.183,49.539l.873.4,1.688-2.337.034-.061A18.146,18.146,0,0,0,15.8,26l-2.447-2.473V23.2a6.847,6.847,0,0,0-6.839-6.839H3.768Zm24.062-5.54a6.947,6.947,0,0,0,6.939,6.939,8.259,8.259,0,0,1,8.212,8.24v5.76a9.813,9.813,0,0,0,.216,2.045l.126.588.552.239a8.532,8.532,0,0,1,3.4,2.679l.968,1.281L48.867,38c1.811-2.594,2.982-7.028,2.982-11.3A25.282,25.282,0,0,0,28.8,1.643l-1.264-.1Z" transform="translate(0 0.001)" fill="#4c6488"/>
  </g>
</svg>
