<svg xmlns="http://www.w3.org/2000/svg" width="31" height="31" viewBox="0 0 31 31">
  <g id="Group_367" data-name="Group 367" transform="translate(-1074 -3372)">
    <circle id="Ellipse_6" data-name="Ellipse 6" cx="15.5" cy="15.5" r="15.5" transform="translate(1074 3372)" fill="#fff"/>
    <g id="linkedin" transform="translate(1080 3377.865)">
      <path id="Path_106" data-name="Path 106" d="M19.377,11.4v7.164H15.222V11.884c0-1.679-.6-2.825-2.1-2.825a2.269,2.269,0,0,0-2.131,1.519,2.776,2.776,0,0,0-.141,1.01v6.98H6.694s.058-11.319,0-12.494h4.155V7.845l-.024.039h.024V7.845A4.133,4.133,0,0,1,14.6,5.778C17.329,5.778,19.377,7.564,19.377,11.4ZM2.349.05A2.166,2.166,0,1,0,2.3,4.37h.029A2.167,2.167,0,1,0,2.349.05ZM.248,18.568H4.4V6.074H.248Z" transform="translate(0 -0.026)" fill="#3e4756"/>
      <path id="Path_107" data-name="Path 107" d="M0,0H23.3V23.3H0Z" fill="none"/>
    </g>
  </g>
</svg>
