<svg xmlns="http://www.w3.org/2000/svg" xmlns:xlink="http://www.w3.org/1999/xlink" width="44.731" height="57.51" viewBox="0 0 44.731 57.51">
  <defs>
    <clipPath id="clip-path">
      <rect id="Rectangle_256" data-name="Rectangle 256" width="44.731" height="57.51" transform="translate(-5 -4)" fill="none" stroke="#707070" stroke-width="1"/>
    </clipPath>
  </defs>
  <g id="Group_332" data-name="Group 332" transform="translate(5 4)">
    <g id="Group_331" data-name="Group 331" clip-path="url(#clip-path)">
      <path id="Path_134" data-name="Path 134" d="M24.444,8A16.444,16.444,0,0,0,8,24.444C8,34.477,19.576,50.283,23.3,55.112a1.427,1.427,0,0,0,2.267-.01c3.71-4.9,15.319-21.01,15.319-30.658A16.444,16.444,0,0,0,24.444,8Z" transform="translate(-7.079 -7.079)" fill="none" stroke="#fff" stroke-linecap="round" stroke-linejoin="round" stroke-width="1.5"/>
      <path id="Path_135" data-name="Path 135" d="M81.818,94.71H74.947a.6.6,0,0,1-.6-.6V92.571c0-.856-1.06-2.144-1.833-3.086-.175-.213-.342-.417-.494-.609a24.909,24.909,0,0,1-1.648-2.341A9.452,9.452,0,1,1,87.81,81.517a9.486,9.486,0,0,1-1.42,5.018,25.4,25.4,0,0,1-1.648,2.341c-.151.193-.32.4-.5.612-.773.941-1.831,2.229-1.831,3.084v1.542a.6.6,0,0,1-.6.6m-6.275-1.192h5.679v-.947c0-1.282,1.118-2.642,2.1-3.841.17-.207.333-.406.481-.593a24.11,24.11,0,0,0,1.571-2.23,8.227,8.227,0,1,0-13.984,0,23.944,23.944,0,0,0,1.571,2.23c.147.186.31.384.48.591.985,1.2,2.1,2.56,2.1,3.843Z" transform="translate(-61.017 -63.725)" fill="#fff"/>
      <path id="Path_136" data-name="Path 136" d="M169.5,107.432a.667.667,0,0,1-.068,0,.6.6,0,0,1-.526-.659c.385-3.444-1.829-5.914-3.507-6.3a.6.6,0,1,1,.27-1.161c2.154.5,4.89,3.42,4.422,7.6a.6.6,0,0,1-.591.53" transform="translate(-145.954 -87.856)" fill="#fff"/>
      <path id="Path_137" data-name="Path 137" d="M129.428,300.826h-5.034a.474.474,0,1,1,0-.915h5.034a.474.474,0,1,1,0,.915" transform="translate(-109.546 -265.384)" fill="#fff"/>
      <path id="Path_138" data-name="Path 138" d="M123.987,287.983h-6.662a.474.474,0,1,1,0-.915h6.662a.474.474,0,1,1,0,.915" transform="translate(-103.291 -254.019)" fill="#fff"/>
      <path id="Path_139" data-name="Path 139" d="M141.313,314.285h-.983a.737.737,0,0,1-.812-.623v-.168a.147.147,0,0,1,.162-.125h2.282a.147.147,0,0,1,.162.125v.168a.737.737,0,0,1-.812.623" transform="translate(-123.456 -277.292)" fill="#fff"/>
    </g>
  </g>
</svg>
