<svg xmlns="http://www.w3.org/2000/svg" xmlns:xlink="http://www.w3.org/1999/xlink" width="55.571" height="71.565" viewBox="0 0 55.571 71.565">
  <defs>
    <clipPath id="clip-path">
      <rect id="Rectangle_254" data-name="Rectangle 254" width="54.934" height="54.934" transform="translate(-6 -6)" fill="none" stroke="#707070" stroke-width="1"/>
    </clipPath>
    <clipPath id="clip-path-2">
      <rect id="Rectangle_255" data-name="Rectangle 255" width="25.745" height="33.721" transform="translate(-3 -4)" fill="none" stroke="#707070" stroke-width="1"/>
    </clipPath>
  </defs>
  <g id="Group_371" data-name="Group 371" transform="translate(-146.589 -1930.331)">
    <g id="Group_328" data-name="Group 328" transform="translate(152.589 1952.962)">
      <g id="Group_326" data-name="Group 326" clip-path="url(#clip-path)">
        <path id="Path_128" data-name="Path 128" d="M47.995,27.731a19.949,19.949,0,0,0-7.033-14.962l-.008-.007a20.081,20.081,0,0,0-3.9-2.6q-.549-.279-1.118-.525a19.883,19.883,0,0,0-5.99-1.544h0Q28.985,8,28,8c-.057,0-.115,0-.172,0A.084.084,0,0,0,27.8,8a19.846,19.846,0,0,0-3.243.294h0a19.829,19.829,0,0,0-6.615,2.413A20.016,20.016,0,0,0,8.592,23.146h0q-.221.886-.361,1.8s0,0,0,0A20.13,20.13,0,0,0,8,28q0,.641.04,1.272a20.021,20.021,0,0,0,13.8,17.761c.043.014.085.028.128.041q.775.245,1.575.427.267.061.537.115h0a20.055,20.055,0,0,0,14.929-2.921q.348-.231.686-.474A19.974,19.974,0,0,0,48,28C48,27.909,48,27.82,47.995,27.731Z" transform="translate(-7.532 -7.531)" fill="none" stroke="#fff" stroke-linecap="round" stroke-linejoin="round" stroke-width="1"/>
        <path id="Path_129" data-name="Path 129" d="M210.84,54.7a7.431,7.431,0,0,1,.683-.633A19.949,19.949,0,0,0,204.49,39.1l-.008-.007a17.173,17.173,0,0,0-3.9-2.6q-.549-.279-1.118-.525c-.166.153.028.45-.306.578-.911.349-.441,1.164-.707,1.646-.686,1.242-1.965,2.095-2.688.612-.356-.731,1.279-.463,1.085-1.49-.078-.412-1.041-.61-1.349-.731-1.109-.437-2.157-.693-3.115.208-.5.471-.827,1.09-1.379,1.518-.48.371-1.153.443-1.033,1.125.084.478.571.434,1.079.543.275.059.9.613.475,1.06-.074.077-1.037.211-1.167.431-.245.416.288.731-.135.939-.528.259-1.213-.2-1.447-.775-.53-1.305-1.558-1.751-1.977-1.189-.3.4.185,1.066.3,1.46.16.563-1.021.168-.918.969.154,1.2,1.9.414,1.048,1.953-.462.836-1.932.136-2.547.722a.912.912,0,0,0,.04,1.515,3.026,3.026,0,0,0,1.553-.042c.98-.133,1.835-1.347,3.4-1.464a2.644,2.644,0,0,1,2.183,1.326c.205.49-.207.83.32.984.494.145.69-1.3,1.41-.5.249.279.326.73.814.67a.509.509,0,0,0,.47-.59c0-.324.222-.712.5-.536.176.113.13.455.262.681a1.461,1.461,0,0,0,1.37.947c.619.029,1.27-.258,1.323.608.041.684-.458.924-1.027.977-1.014.094-1.891-.429-2.855-.524-.706-.07-.808.389-1.374.568-.693.218-1.129-.163-1.574-.639-.545-.584-.536-1.27-1.08-1.653-.4-.284-1.833-.068-2.291-.013-.587.07-1.092.251-1.682.368-.976.194-1.422.248-1.967.848s-.315,1.109-.479,1.362c-.432.663-.744.48-1.307,1.024-1.122,1.086-1.017,2.141-.969,3.608a3.991,3.991,0,0,0,1.49,3.208,3.868,3.868,0,0,0,3.538.944c.871-.144,2.8-.058,3.142.986.144.44-.14.9-.021,1.346.171.635.724,1.151.919,1.8a3.562,3.562,0,0,1,.055,1.772,3.366,3.366,0,0,0,.141,2.261c.34.937.681,3.371,1.885,3.449a3.775,3.775,0,0,0,2.929-1.593c.777-.986.88-1.88,2.01-2.47a2.5,2.5,0,0,0,1.3-2.182,8.781,8.781,0,0,1,.031-1.655c.27-1.238,1.059-1.71,2.026-2.445.542-.412,2.772-2.236,1.721-2.992-.272-.2-1.638-.647-1.574-1.28.087-.861,2.25-.49,3.252-.8,1.215-.382,1.654-1.206.527-2.014-.476-.341-1.682-.4-2.184-.672a.914.914,0,0,1-.159-1.64,1.3,1.3,0,0,1,1.385-.021c.541.271,1.2.985,1.78,1.152a3.551,3.551,0,0,1,2.322,1.544c.624.976.214,2.068.281,3.183.054.9-.131,2.023.778,1.885.494-.075.645-.914.769-1.738A5.5,5.5,0,0,1,210.84,54.7Z" transform="translate(-171.06 -33.863)" fill="none" stroke="#fff" stroke-linecap="round" stroke-linejoin="round" stroke-width="1"/>
        <path id="Path_130" data-name="Path 130" d="M16.342,385.842a19.967,19.967,0,0,1-7.657-14.5c.323.418.616.768.835,1.008.461.5,1.016.919,1.444,1.456s.541,1.24,1.023,1.722c.861.86,2.587.692,3.1,1.941a3.4,3.4,0,0,1-.051,1.7c-.075.811.485,1.43.513,2.235.019.552-.328.918-.376,1.43a2.455,2.455,0,0,0,.269,1.072A20.8,20.8,0,0,0,16.342,385.842Z" transform="translate(-8.177 -349.606)" fill="none" stroke="#fff" stroke-linecap="round" stroke-linejoin="round" stroke-width="1"/>
        <path id="Path_131" data-name="Path 131" d="M66.357,75.561c-.939.432-1.395,1.306-2.288,1.822a6.47,6.47,0,0,1-1.98.305,20.068,20.068,0,0,1,2.994-3.633,1.074,1.074,0,0,1,.1-.06c1.771-1.079,4.349-2.213,6.281-1.534C73.346,73.124,68.174,74.725,66.357,75.561Z" transform="translate(-58.455 -68.027)" fill="none" stroke="#fff" stroke-linecap="round" stroke-linejoin="round" stroke-width="1"/>
      </g>
    </g>
    <g id="Group_330" data-name="Group 330" transform="translate(182.415 1928.331)">
      <g id="Group_329" data-name="Group 329" transform="translate(-3 6)" clip-path="url(#clip-path-2)">
        <path id="Path_132" data-name="Path 132" d="M16.875,8A8.875,8.875,0,0,0,8,16.875c0,5.415,6.248,13.946,8.259,16.552a.77.77,0,0,0,1.223-.005c2-2.645,8.268-11.339,8.268-16.547A8.875,8.875,0,0,0,16.875,8Z" transform="translate(-7.503 -7.503)" fill="none" stroke="#fff" stroke-linecap="round" stroke-linejoin="round" stroke-width="1"/>
        <path id="Path_133" data-name="Path 133" d="M61.728,56.157a6.307,6.307,0,0,0-2.223-4.73l0,0A6.347,6.347,0,0,0,58.27,50.6q-.174-.088-.353-.166a6.284,6.284,0,0,0-1.894-.488h0q-.3-.029-.616-.029h-.062a6.278,6.278,0,0,0-1.025.093h0a6.308,6.308,0,0,0-3.287,1.665,6.316,6.316,0,0,0-1.76,3.031h0q-.07.28-.114.569s0,0,0,0a6.362,6.362,0,0,0-.073.964q0,.2.013.4a6.33,6.33,0,0,0,4.364,5.615l.041.013q.245.077.5.135l.17.036h0a6.34,6.34,0,0,0,4.72-.923q.11-.073.217-.15a6.315,6.315,0,0,0,2.623-5.128Q61.729,56.2,61.728,56.157Z" transform="translate(-46.034 -46.817)" fill="none" stroke="#fff" stroke-linecap="round" stroke-linejoin="round" stroke-width="1"/>
      </g>
    </g>
  </g>
</svg>
