<svg id="Group_363" data-name="Group 363" xmlns="http://www.w3.org/2000/svg" xmlns:xlink="http://www.w3.org/1999/xlink" width="43.359" height="49.007" viewBox="0 0 43.359 49.007">
  <defs>
    <clipPath id="clip-path">
      <rect id="Rectangle_292" data-name="Rectangle 292" width="43.359" height="49.007" fill="#fff"/>
    </clipPath>
  </defs>
  <g id="Group_362" data-name="Group 362" clip-path="url(#clip-path)">
    <path id="Path_200" data-name="Path 200" d="M21.587,1.846,38.419,9.791H4.873ZM.133,10.86a.876.876,0,0,0,.855.684H42.329A.876.876,0,0,0,42.7,9.875L21.96.084a.876.876,0,0,0-.75,0L.612,9.876a.876.876,0,0,0-.479.984" transform="translate(-0.088 0)" fill="#fff"/>
    <path id="Path_201" data-name="Path 201" d="M162.666,86.841h-6.709v-1.23h.247a.873.873,0,0,0,.124.01h5.749a.87.87,0,0,0,.124-.01h.464ZM155.958,64.9h6.709v1.23H162.2a.874.874,0,0,0-.124-.01h-5.749a.878.878,0,0,0-.124.01h-.247Zm1.248,2.983h4V83.858h-4Zm5.548-4.736h-6.883a1.667,1.667,0,0,0-1.666,1.665v1.405a1.668,1.668,0,0,0,1.248,1.612V83.911a1.668,1.668,0,0,0-1.248,1.612v1.405a1.667,1.667,0,0,0,1.666,1.666h6.883a1.667,1.667,0,0,0,1.665-1.666V85.523a1.667,1.667,0,0,0-1.464-1.653v-16a1.667,1.667,0,0,0,1.464-1.653V64.809a1.667,1.667,0,0,0-1.665-1.665" transform="translate(-121.06 -49.572)" fill="#fff"/>
    <path id="Path_202" data-name="Path 202" d="M1.753,64.9H8.461v1.231H8a.844.844,0,0,0-.124-.01H2.124a.839.839,0,0,0-.124.01H1.753ZM7,83.858H3V67.88H7Zm1.464,2.983H1.753V85.611H2a.866.866,0,0,0,.124.01H7.873A.866.866,0,0,0,8,85.611h.464ZM0,85.523v1.405a1.667,1.667,0,0,0,1.665,1.665H8.549a1.667,1.667,0,0,0,1.665-1.665V85.523A1.667,1.667,0,0,0,8.75,83.871v-16a1.668,1.668,0,0,0,1.464-1.653V64.809a1.667,1.667,0,0,0-1.665-1.665H1.665A1.667,1.667,0,0,0,0,64.809v1.405a1.669,1.669,0,0,0,1.248,1.612V83.911A1.668,1.668,0,0,0,0,85.523" transform="translate(0 -49.572)" fill="#fff"/>
    <path id="Path_203" data-name="Path 203" d="M82.02,86.841H75.312v-1.23h.247a.905.905,0,0,0,.124.01h5.749a.9.9,0,0,0,.124-.01h.464ZM75.312,64.9H82.02v1.231h-.464a.875.875,0,0,0-.124-.01H75.683a.875.875,0,0,0-.124.01h-.247Zm1.248,2.983h4V83.858h-4Zm7.214-1.665V64.809a1.667,1.667,0,0,0-1.665-1.665H75.224a1.667,1.667,0,0,0-1.665,1.665v1.405a1.669,1.669,0,0,0,1.248,1.612V83.911a1.669,1.669,0,0,0-1.248,1.612v1.405a1.667,1.667,0,0,0,1.665,1.665h6.883a1.667,1.667,0,0,0,1.665-1.665V85.523a1.667,1.667,0,0,0-1.464-1.653v-16a1.668,1.668,0,0,0,1.464-1.653" transform="translate(-57.748 -49.572)" fill="#fff"/>
    <path id="Path_204" data-name="Path 204" d="M41.67,196.4H38.759a1.4,1.4,0,0,0-.16-.01H5.008a1.4,1.4,0,0,0-.16.01H1.865v-1.076H41.67Zm-3.409,2.819H5.346v-1.066H38.261Zm3.746-5.648H1.527a1.417,1.417,0,0,0-1.415,1.415v1.751a1.417,1.417,0,0,0,1.415,1.415H3.593v1.4a1.417,1.417,0,0,0,1.415,1.415H38.6a1.417,1.417,0,0,0,1.415-1.415v-1.4h1.994a1.417,1.417,0,0,0,1.415-1.415v-1.751a1.417,1.417,0,0,0-1.415-1.415" transform="translate(-0.088 -151.965)" fill="#fff"/>
  </g>
</svg>
