<svg id="Group_325" data-name="Group 325" xmlns="http://www.w3.org/2000/svg" xmlns:xlink="http://www.w3.org/1999/xlink" width="66.271" height="38.079" viewBox="0 0 66.271 38.079">
  <defs>
    <clipPath id="clip-path">
      <rect id="Rectangle_248" data-name="Rectangle 248" width="66.271" height="38.079" fill="#fff"/>
    </clipPath>
  </defs>
  <g id="Group_324" data-name="Group 324" clip-path="url(#clip-path)">
    <path id="Path_127" data-name="Path 127" d="M26.088,33.47a2.009,2.009,0,0,0-.221,2.318,2.507,2.507,0,0,0,.6.694l0,0a2.428,2.428,0,0,0,.817.428,2.01,2.01,0,0,0,2.212-.767L31.659,33.4a2.01,2.01,0,0,0,.231-2.33,2.4,2.4,0,0,0-.6-.694,2.435,2.435,0,0,0-.819-.426,2.008,2.008,0,0,0-2.208.763L26.1,33.458ZM31.833,4.586l-1.05-.593L19.628,6.768a.545.545,0,0,1-.4-.056L7.91,1.025A.54.54,0,1,1,8.393.058L19.562,5.669l11.17-2.78v0a.533.533,0,0,1,.4.054l1.888,1.066q1.19-.565,2.415-1.092a.528.528,0,0,1,.344-.028v0l11.174,2.78,9.294-4.514a.542.542,0,1,1,.471.977L47.248,6.725a.53.53,0,0,1-.372.042L35.69,3.986c-1.789.779-3.525,1.6-5.22,2.539A39.832,39.832,0,0,0,25.554,9.71a26.129,26.129,0,0,0-1.038,3.514,36.206,36.206,0,0,0-.617,3.733c.261.772.619,1.167,1.035,1.292a2.375,2.375,0,0,0,1.65-.327.4.4,0,0,1,.064-.033c1.819-.779,2.791-2.641,3.7-4.387.153-.294.306-.584.452-.852a.543.543,0,0,1,.172-.2,8.91,8.91,0,0,1,1.655-.991,3.829,3.829,0,0,1,1.909-.33.516.516,0,0,1,.242.078,46.769,46.769,0,0,1,6.2,4.568,55.278,55.278,0,0,1,5.3,5.349l.038.045,2.777,3.74,6.1-3.175,10.245-6.178a.542.542,0,1,1,.56.927c-5.738,3.462-10.492,6.291-16.3,9.331a2.83,2.83,0,0,1-.113,2.841,3.363,3.363,0,0,1-.878.946,3.432,3.432,0,0,1-1.167.558,3.046,3.046,0,0,1-1.836-.08,2.89,2.89,0,0,1-.442,1.494,3.365,3.365,0,0,1-.875.948,3.446,3.446,0,0,1-1.167.555,3.019,3.019,0,0,1-1.9-.1,2.916,2.916,0,0,1-.443,1.44,3.385,3.385,0,0,1-.875.946,3.494,3.494,0,0,1-1.167.558,2.98,2.98,0,0,1-2.525-.449,3.055,3.055,0,0,1-.393,1,3.36,3.36,0,0,1-.878.946,3.444,3.444,0,0,1-1.167.555,3.019,3.019,0,0,1-3.293-1.217l-.1-.129-.146.184a3.043,3.043,0,0,1-3.365,1.137,3.492,3.492,0,0,1-1.181-.612v0a3.537,3.537,0,0,1-.875-1,3.064,3.064,0,0,1-.414-1.732,3.036,3.036,0,0,1-1.779,0,3.53,3.53,0,0,1-2.055-1.621,3.033,3.033,0,0,1-.414-1.73,3.075,3.075,0,0,1-1.779,0,3.548,3.548,0,0,1-2.057-1.622,3.052,3.052,0,0,1-.414-1.73,3.075,3.075,0,0,1-1.779,0,3.568,3.568,0,0,1-2.057-1.622,3.045,3.045,0,0,1,.322-3.537v0l.075-.1-2.2-1.327-10-3.2a.541.541,0,1,1,.332-1.031L10.765,20.3a.573.573,0,0,1,.115.052l2.372,1.429.65-.824.033-.038a3.039,3.039,0,0,1,3.335-1.1,3.492,3.492,0,0,1,1.181.612,3.55,3.55,0,0,1,.875,1.007,3.257,3.257,0,0,1,.36.937,3.023,3.023,0,0,1,3.238-.986,3.568,3.568,0,0,1,2.057,1.621,3.061,3.061,0,0,1,.414,1.73,3.047,3.047,0,0,1,1.777,0A3.525,3.525,0,0,1,29.23,26.36a2.981,2.981,0,0,1,.278,2.443,3.154,3.154,0,0,1,1.266.111,3.518,3.518,0,0,1,1.182.614v0a3.46,3.46,0,0,1,.5.48.544.544,0,0,1,.913-.068l3.052,4.111a1.981,1.981,0,0,0,2.151.812,2.333,2.333,0,0,0,.8-.381,2.215,2.215,0,0,0,.593-.638,1.858,1.858,0,0,0-.162-2.165l-.009-.012-2.911-3.921a.542.542,0,0,1,.871-.645L40.8,31.213a1.979,1.979,0,0,0,2.151.814,2.381,2.381,0,0,0,.8-.384,2.238,2.238,0,0,0,.593-.635,1.861,1.861,0,0,0-.162-2.168l-.009-.012-2.97-4a.542.542,0,0,1,.871-.645l3.052,4.111a1.981,1.981,0,0,0,2.151.812,2.334,2.334,0,0,0,.8-.381,2.282,2.282,0,0,0,.593-.638,1.851,1.851,0,0,0-.144-2.139.584.584,0,0,1-.042-.056l-3.017-4.064a54.386,54.386,0,0,0-5.2-5.241,45.683,45.683,0,0,0-5.942-4.392,2.884,2.884,0,0,0-1.269.257,7.625,7.625,0,0,0-1.353.8c-.137.252-.266.5-.4.746-1,1.913-2.064,3.951-4.239,4.883a3.36,3.36,0,0,1-2.443.4,2.831,2.831,0,0,1-1.8-2.113.538.538,0,0,1-.019-.235,37.067,37.067,0,0,1,.652-3.947A26.763,26.763,0,0,1,24.6,9.178a.56.56,0,0,1,.174-.233,40.919,40.919,0,0,1,5.175-3.37q.932-.512,1.885-.988m-4.5,25.568.7-.892.024-.035a2,2,0,0,0,.233-2.328,2.43,2.43,0,0,0-.6-.694,2.471,2.471,0,0,0-.817-.428,2.007,2.007,0,0,0-2.21.77l0,0L21.85,30.107a2.006,2.006,0,0,0-.231,2.328,2.431,2.431,0,0,0,.6.694,2.472,2.472,0,0,0,.817.428,2.008,2.008,0,0,0,2.2-.755l.012-.014Zm3.86,5.592.271.365a1.982,1.982,0,0,0,2.153.814,2.382,2.382,0,0,0,.8-.384A2.27,2.27,0,0,0,35,35.906a1.861,1.861,0,0,0-.165-2.168L33.2,31.533a3.106,3.106,0,0,1-.7,2.539ZM20.407,23.193l-1.332,1.69c-.023.031-.045.061-.071.092l-1.4,1.779-.047.061a2,2,0,0,0-.186,2.269,2.466,2.466,0,0,0,1.419,1.12A2.009,2.009,0,0,0,21,29.436l2.808-3.561a2.01,2.01,0,0,0,.231-2.33,2.387,2.387,0,0,0-.6-.692,2.429,2.429,0,0,0-.817-.428,2.01,2.01,0,0,0-2.212.767m-3.66,2.892L18.152,24.3a2.011,2.011,0,0,0,.233-2.33,2.507,2.507,0,0,0-1.422-1.12,2,2,0,0,0-2.186.737l-.021.033-.939,1.188-.019.024-.447.567h0a2.01,2.01,0,0,0-.231,2.33,2.506,2.506,0,0,0,1.422,1.12,2.007,2.007,0,0,0,2.208-.767" transform="translate(0 -0.001)" fill="#fff"/>
  </g>
</svg>
