<?xml version="1.0" encoding="utf-8"?>
<!-- Generator: Adobe Illustrator 19.0.0, SVG Export Plug-In . SVG Version: 6.00 Build 0)  -->
<svg version="1.1" id="Layer_1" xmlns="http://www.w3.org/2000/svg" xmlns:xlink="http://www.w3.org/1999/xlink" x="0px" y="0px"
	 viewBox="-257 386.6 96.3 20.4" style="enable-background:new -257 386.6 96.3 20.4;" xml:space="preserve">
<style type="text/css">
	.st0{fill:#FFFFFF;}
</style>
<g id="pensoft_logo_1_" transform="translate(-4.147 -10.425)">
	<g id="Group_15862" transform="translate(4.147 10.425)">
		<path id="Path_27187" class="st0" d="M-239.1,401.6c0.3,0.2,0.6,0.2,0.9,0.1c0.4-0.2,0.7-0.5,1-0.9c0.8-0.8,0.7-2.1-0.1-2.9
			c0,0-4.5-4.5-4.5-4.5c0.3,0,0.7-1,0.1-1.6c0,0-4.4-4.4-4.4-4.4c-0.7-0.6-1-0.9-1.6-0.9h-0.7c-0.3,0-0.5,0.3-0.5,0.6v3.6
			c-0.1,0.3,0,0.6,0.3,0.9c0,0-7.9,0-7.9,0c-0.2,0-0.5,0.1-0.6,0.3c-0.1,0.2,0,0.4,0.1,0.6l5.4,7.6l3.9,0l2.8-2l0.2,0.3
			c0,0-10.3,7.6-10.3,7.6c-0.2,0.2-0.3,0.4-0.2,0.7c0.1,0.2,0.2,0.5,0.5,0.5h5.7c0.5,0,1-0.4,1-0.9c0,0,0-1.6,0-1.6
			c0-0.6,0-0.6,0.8-0.6h1.2c-0.4,0.2-1,0.5-1,0.5c0,0-0.1,0.1-0.1,0.2c0,0.1-0.2,0.7-0.3,0.8c0,0.1-0.1,0.1,0,0.2c0,0.1,0,0.2,0,0.2
			h10.2v-0.8h-9.2c0-0.1,0.1-0.2,0.2-0.3c0,0,1.4-0.7,1.8-0.9h0.5c1,0.1,1.9-0.4,2.4-1.2c0,0,1.1-2.1,1.2-2.2
			c0.2-0.3,0.6-0.4,0.9-0.4c0.4,0,0.7,0.3,0.8,0.7c0.1,0.2,0,0.4-0.1,0.5C-238.7,401.5-238.9,401.6-239.1,401.6L-239.1,401.6z"/>
		<path id="Path_27188" class="st0" d="M-247.4,387.3c1.2,1,2.3,2,3.4,3.2c1.3,1.4,2.1,1.9,1.6,2.4c-0.9-0.8-2.2-1.3-3.4-1.3h-1.6
			c-0.3,0-0.6-0.2-0.7-0.5c0-0.1,0-0.1,0-0.2c0,0,0-3.7,0-3.7C-247.8,387.3-247.6,387.3-247.4,387.3L-247.4,387.3z M-256.1,392.3
			l5,7h3.3l3.2-2.3l1.1,1.4l-10.6,7.9h4.8c0.6,0,0.8-0.2,0.8-0.7c0,0,0-1.6,0-1.6c0-0.8,0.5-0.9,1.3-0.9h1.5c0,0,1.9,0,1.9,0
			c0.6,0,1.1-0.1,1.6-0.5c0.5-0.7,0.9-1.5,1.3-2.3c0.3-0.6,0.9-1,1.6-0.9c0.7,0,1.3,0.5,1.5,1.1c0.6-0.5,0.7-1.5,0.1-2.1
			c0,0,0,0-0.1-0.1c0,0-5.1-5-5.1-5c-0.9-0.7-2.1-1.1-3.3-1.1L-256.1,392.3z"/>
		<circle id="Ellipse_24" class="st0" cx="-237.9" cy="399.4" r="0.3"/>
	</g>
	<g id="Group_15867" transform="translate(24.122 15.418)">
		<g id="Group_15866" transform="translate(0 0)">
			<g id="Group_15865">
				<g id="Group_15863" transform="translate(2.216)">
					<path id="Path_27189" class="st0" d="M-257,389.4h3.3h2.9c2,0,1.5,1.4,1.2,1.8c-0.7,0.7-1.5,1.3-2.4,1.7V390h-3.2v8.9h3.2
						c0,0,0-2.9,0-2.9c0.3-0.1,2.3-1.2,3.1-1.7c1-0.6,1.9-1.4,2.5-2.4c0.5-1.1,0.5-2.3,0-3.4c-0.7-1.2-2-1.9-3.4-1.9
						c0,0-5.5,0-5.5,0c-0.6-0.1-1.1,0.3-1.3,0.9C-256.5,387.5-257,389.4-257,389.4z"/>
					<path id="Path_27190" class="st0" d="M-204.1,390.1c0-1-0.5-1.9-1.2-2.5c-0.9-0.7-2.1-1-3.2-1h-7.1h-4.6
						c-1.1,0-2.5,0.2-3.2,1.3c-0.6,1.1-0.5,2.5,0.4,3.5c0,0,3.3,3.7,3.2,3.7c0.4,0.5,0.1,1-0.3,1h-5.1v-9.4h-3.2v4.3l-3.6-4.3h-15.5
						c1.2,0.4,2,1.6,2.1,2.8c0,0,0.3,0,0.3,0h0.4v9.4h7.8l0.7-2.8h-5.3v-1.9h3.7l0.7-2.8h-4.4v-1.8h6.3v9.4h3.2v-7.5l3.5,3.9v3.6h9
						c1.2,0,2.8-0.2,3.4-1.3c0.6-1.1,0.4-2.5-0.5-3.5c0,0-3.2-3.7-3.2-3.7c-0.3-0.4-0.4-1,0.4-1c0,0,9.4,0,9.4,0
						c2,0,2.1,1.1,2.1,1.5c0.2,1.2,0.1,2.5-0.3,3.7c-0.4,1.3-1.2,1.7-1.7,1.7c-0.4,0-1.2-0.3-1.6-1.7c-0.4-1.5-0.4-3.1-0.1-4.6
						c0,0-3.9,0-3.9,0c-0.1,3.4,0.5,5,1.1,6.1c1.1,2,2.6,3.1,4.6,3.1c2.2,0,3.4-1.1,4.6-3.1C-204.2,394.2-203.9,392.1-204.1,390.1z"
						/>
					<path id="Path_27191" class="st0" d="M-205.7,386.6c1.2,0.5,2.1,1.5,2.2,2.8c0,0,1,0,1,0s0,9,0,9c0,0.9,0.2,1.8,0.5,2.6
						c0,0,3.1-1.9,3.1-1.9c-0.2-0.6-0.4-1.2-0.4-1.8v-3.1h3.8l0.8-2.8h-4.6v-2h7.8v9.4h3.3v-9.4h4.2c0,0-0.5-2-0.5-2
						c-0.2-0.6-0.7-0.9-1.3-0.8h-5.4L-205.7,386.6z"/>
				</g>
				<g id="Group_15864" transform="translate(0 13.489)">
					<rect id="Rectangle_3592" x="-197.2" y="386.6" class="st0" width="11.3" height="0.8"/>
					<path id="Path_27192" class="st0" d="M-257,386.6h56.2v0.8l-56.2,0V386.6z"/>
				</g>
			</g>
		</g>
		<path id="Path_27193" class="st0" d="M-180.7,399.2c0,1-0.8,1.8-1.8,1.8c-1,0-1.8-0.8-1.8-1.8c0-1,0.8-1.8,1.8-1.8c0,0,0,0,0,0
			C-181.5,397.4-180.7,398.2-180.7,399.2z M-183.8,399.2c0,0.8,0.6,1.4,1.4,1.4c0.8,0,1.4-0.6,1.4-1.4s-0.6-1.4-1.4-1.4l0,0
			C-183.2,397.8-183.8,398.4-183.8,399.2z M-182.8,399.1v-0.4h0.4c0.2,0,0.2,0.1,0.2,0.2c0,0.2-0.1,0.2-0.3,0.2L-182.8,399.1
			L-182.8,399.1z M-183.1,400h0.3v-0.6h0.3c0.2,0,0.3,0.1,0.3,0.3c0,0.1,0,0.2,0,0.3h0.4v0c-0.1,0-0.1-0.1-0.1-0.3
			c0-0.3-0.1-0.3-0.2-0.4c0.2-0.1,0.3-0.2,0.2-0.4c0-0.2-0.2-0.5-0.4-0.5c0,0,0,0-0.1,0h-0.8L-183.1,400L-183.1,400z"/>
	</g>
</g>
</svg>
