<svg id="Group_361" data-name="Group 361" xmlns="http://www.w3.org/2000/svg" xmlns:xlink="http://www.w3.org/1999/xlink" width="46.645" height="47.815" viewBox="0 0 46.645 47.815">
  <defs>
    <clipPath id="clip-path">
      <rect id="Rectangle_291" data-name="Rectangle 291" width="46.645" height="47.815" fill="#fff"/>
    </clipPath>
  </defs>
  <g id="Group_360" data-name="Group 360" clip-path="url(#clip-path)">
    <path id="Path_196" data-name="Path 196" d="M50.176,131.02a.842.842,0,0,0,0,1.684h23.84a.842.842,0,1,0,0-1.684Z" transform="translate(-38.988 -103.543)" fill="#fff"/>
    <path id="Path_197" data-name="Path 197" d="M74.016,163.132H50.176a.842.842,0,0,0,0,1.684h23.84a.842.842,0,1,0,0-1.684" transform="translate(-38.988 -128.92)" fill="#fff"/>
    <path id="Path_198" data-name="Path 198" d="M1.684,13.581h0a1.209,1.209,0,0,1,.366-.855,1.2,1.2,0,0,1,.862-.346l4.27.046a.837.837,0,0,0,.235.034.846.846,0,0,0,.216-.029l14.412.154v2.432l-19.164-.2a1.216,1.216,0,0,1-1.2-1.231m20.689,6.16h.006l.391,0h.01a.842.842,0,0,0,.842-.832l.027-2.218a.839.839,0,0,0,.08-.356V10.186l.016-1.265a.842.842,0,0,0-.832-.852l-.39,0a.505.505,0,0,1,.012-1.01l10.713.132a.505.505,0,0,1-.007,1.01h-.006l-.39,0a.842.842,0,0,0-.852.837l-.055,9.994a.842.842,0,0,0,.83.847l.325,0a.5.5,0,0,1,.354.152.505.505,0,0,1-.36.858h-.006l-10.712-.132a.505.505,0,0,1,.006-1.01M8.258,2.394a.711.711,0,0,1,.71-.71H15.71a1.216,1.216,0,0,1,.151.016h.008a1.714,1.714,0,0,0,.235.017H37.282a.711.711,0,0,1,.71.71V38.32H14.421a.842.842,0,0,0-.842.842v3.906a4.711,4.711,0,0,1-1.127,3.064H11.269a3.107,3.107,0,0,1-3.01-3.123V16.553l13.706.146-.017,1.4a2.189,2.189,0,0,0,.4,4.336l10.713.132h.026a2.189,2.189,0,0,0,1.567-3.716,2.168,2.168,0,0,0-1.027-.6l.047-8.419a2.189,2.189,0,0,0-.4-4.335L22.555,5.37a2.188,2.188,0,0,0-2.214,2.163,2.193,2.193,0,0,0,1.709,2.162L22.036,10.9,8.258,10.753Zm36.7,40.674A3.068,3.068,0,0,1,41.9,46.132H14.485a6.387,6.387,0,0,0,.777-3.064V40h29.7ZM11.249,47.815H41.9a4.753,4.753,0,0,0,4.748-4.748V39.162a.842.842,0,0,0-.842-.842H39.675V2.427A2.4,2.4,0,0,0,37.282.034H16.1A2.677,2.677,0,0,0,15.71,0H8.968A2.4,2.4,0,0,0,6.575,2.394v8.341L2.931,10.7a2.9,2.9,0,0,0-.07,5.8l3.713.039V43.008a4.8,4.8,0,0,0,4.675,4.807" transform="translate(0)" fill="#fff"/>
    <path id="Path_199" data-name="Path 199" d="M74.016,147.076H50.176a.842.842,0,0,0,0,1.684h23.84a.842.842,0,1,0,0-1.684" transform="translate(-38.988 -116.232)" fill="#fff"/>
  </g>
</svg>
