<svg id="Group_356" data-name="Group 356" xmlns="http://www.w3.org/2000/svg" xmlns:xlink="http://www.w3.org/1999/xlink" width="51.191" height="50.641" viewBox="0 0 51.191 50.641">
  <defs>
    <clipPath id="clip-path">
      <rect id="Rectangle_286" data-name="Rectangle 286" width="51.191" height="50.641" fill="none" stroke="#fff" stroke-width="2"/>
    </clipPath>
  </defs>
  <g id="Group_353" data-name="Group 353">
    <g id="Group_352" data-name="Group 352" clip-path="url(#clip-path)">
      <path id="Path_182" data-name="Path 182" d="M44.54,50.726V68.719H6v-47.1H18.543" transform="translate(-5.23 -18.848)" fill="none" stroke="#fff" stroke-linecap="round" stroke-linejoin="round" stroke-width="2"/>
      <path id="Path_183" data-name="Path 183" d="M205.831,21.622h12.9V33.542" transform="translate(-179.419 -18.848)" fill="none" stroke="#fff" stroke-linecap="round" stroke-linejoin="round" stroke-width="2"/>
      <rect id="Rectangle_285" data-name="Rectangle 285" width="7.053" height="8.747" transform="translate(16.336 0.77)" fill="none" stroke="#fff" stroke-linecap="round" stroke-linejoin="round" stroke-width="2"/>
    </g>
  </g>
  <path id="Path_184" data-name="Path 184" d="M66.722,78.987v9.9H35.84V49.513h8.312" transform="translate(-31.241 -43.16)" fill="none" stroke="#fff" stroke-linecap="round" stroke-linejoin="round" stroke-width="2"/>
  <path id="Path_185" data-name="Path 185" d="M205.832,49.513H214.9V65.179" transform="translate(-179.419 -43.16)" fill="none" stroke="#fff" stroke-linecap="round" stroke-linejoin="round" stroke-width="2"/>
  <path id="Path_186" data-name="Path 186" d="M70.263,122.433h-4.7v-4.7" transform="translate(-57.146 -102.623)" fill="none" stroke="#fff" stroke-linecap="round" stroke-linejoin="round" stroke-width="2"/>
  <line id="Line_7" data-name="Line 7" x2="13.69" transform="translate(17.584 15.926)" fill="none" stroke="#fff" stroke-linecap="round" stroke-linejoin="round" stroke-width="2"/>
  <line id="Line_8" data-name="Line 8" x2="10.41" transform="translate(17.584 18.992)" fill="none" stroke="#fff" stroke-linecap="round" stroke-linejoin="round" stroke-width="2"/>
  <line id="Line_9" data-name="Line 9" x2="13.69" transform="translate(17.584 26.074)" fill="none" stroke="#fff" stroke-linecap="round" stroke-linejoin="round" stroke-width="2"/>
  <line id="Line_10" data-name="Line 10" x2="10.41" transform="translate(17.584 29.14)" fill="none" stroke="#fff" stroke-linecap="round" stroke-linejoin="round" stroke-width="2"/>
  <line id="Line_11" data-name="Line 11" x2="6.206" transform="translate(17.584 36.222)" fill="none" stroke="#fff" stroke-linecap="round" stroke-linejoin="round" stroke-width="2"/>
  <line id="Line_12" data-name="Line 12" x2="5.205" transform="translate(17.584 39.287)" fill="none" stroke="#fff" stroke-linecap="round" stroke-linejoin="round" stroke-width="2"/>
  <path id="Path_187" data-name="Path 187" d="M84.877,116.265l.94,1.009,2.522-2.765" transform="translate(-73.986 -99.816)" fill="none" stroke="#fff" stroke-linecap="round" stroke-linejoin="round" stroke-width="2"/>
  <path id="Path_188" data-name="Path 188" d="M70.263,201.514h-4.7v-4.7" transform="translate(-57.146 -171.555)" fill="none" stroke="#fff" stroke-linecap="round" stroke-linejoin="round" stroke-width="2"/>
  <path id="Path_189" data-name="Path 189" d="M84.877,195.346l.94,1.009,2.522-2.765" transform="translate(-73.986 -168.748)" fill="none" stroke="#fff" stroke-linecap="round" stroke-linejoin="round" stroke-width="2"/>
  <path id="Path_190" data-name="Path 190" d="M70.263,280.594h-4.7v-4.7" transform="translate(-57.146 -240.487)" fill="none" stroke="#fff" stroke-linecap="round" stroke-linejoin="round" stroke-width="2"/>
  <path id="Path_191" data-name="Path 191" d="M84.877,274.426l.94,1.009,2.522-2.765" transform="translate(-73.986 -237.68)" fill="none" stroke="#fff" stroke-linecap="round" stroke-linejoin="round" stroke-width="2"/>
  <g id="Group_355" data-name="Group 355">
    <g id="Group_354" data-name="Group 354" clip-path="url(#clip-path)">
      <path id="Path_192" data-name="Path 192" d="M208.034,138.823l-.968.384-.353-.352.385-.969a17.493,17.493,0,0,1,3.889-5.913l15.756-15.756,2.96,2.96-15.756,15.756A17.493,17.493,0,0,1,208.034,138.823Z" transform="translate(-180.187 -101.306)" fill="none" stroke="#fff" stroke-linecap="round" stroke-linejoin="round" stroke-width="2"/>
      <line id="Line_13" data-name="Line 13" x1="0.96" y2="0.96" transform="translate(25.445 38.023)" fill="none" stroke="#fff" stroke-linecap="round" stroke-linejoin="round" stroke-width="2"/>
      <rect id="Rectangle_287" data-name="Rectangle 287" width="1.86" height="2.842" transform="translate(47.096 15.322) rotate(-45)" fill="none" stroke="#fff" stroke-linecap="round" stroke-linejoin="round" stroke-width="2"/>
      <path id="Path_193" data-name="Path 193" d="M316.66,107.723l-2.581-1.251-4.211,4.211" transform="translate(-270.105 -92.809)" fill="none" stroke="#fff" stroke-linecap="round" stroke-linejoin="round" stroke-width="2"/>
      <line id="Line_14" data-name="Line 14" x2="2.94" y2="2.94" transform="translate(30.123 31.386)" fill="none" stroke="#fff" stroke-linecap="round" stroke-linejoin="round" stroke-width="2"/>
    </g>
  </g>
</svg>
