<svg xmlns="http://www.w3.org/2000/svg" width="31" height="31" viewBox="0 0 31 31">
  <g id="Group_370" data-name="Group 370" transform="translate(-1200 -3372)">
    <circle id="Ellipse_20" data-name="Ellipse 20" cx="15.5" cy="15.5" r="15.5" transform="translate(1200 3372)" fill="#fff"/>
    <path id="Icon_awesome-whatsapp" data-name="Icon awesome-whatsapp" d="M16.221,5.022A9.457,9.457,0,0,0,1.341,16.431L0,21.328l5.012-1.316a9.425,9.425,0,0,0,4.518,1.15h0a9.545,9.545,0,0,0,9.543-9.454,9.491,9.491,0,0,0-2.857-6.686ZM9.535,19.569a7.844,7.844,0,0,1-4-1.094l-.285-.17-2.972.779.792-2.9-.187-.3a7.873,7.873,0,1,1,14.6-4.178A7.946,7.946,0,0,1,9.535,19.569Zm4.31-5.885c-.234-.119-1.4-.69-1.614-.767s-.375-.119-.532.119-.609.767-.749.928-.277.179-.511.06a6.43,6.43,0,0,1-3.215-2.811c-.243-.417.243-.388.694-1.29A.438.438,0,0,0,7.9,9.511c-.06-.119-.532-1.282-.728-1.755s-.388-.4-.532-.4-.294-.009-.451-.009a.875.875,0,0,0-.63.294,2.654,2.654,0,0,0-.826,1.972,4.628,4.628,0,0,0,.962,2.444,10.556,10.556,0,0,0,4.037,3.569,4.622,4.622,0,0,0,2.836.592,2.419,2.419,0,0,0,1.593-1.124,1.976,1.976,0,0,0,.136-1.124C14.236,13.859,14.079,13.8,13.844,13.684Z" transform="translate(1205.961 3375.615)" fill="#3f4756"/>
  </g>
</svg>
